<?xml version="1.0" encoding="utf-8"?>
<!-- Generator: Adobe Illustrator 24.0.0, SVG Export Plug-In . SVG Version: 6.00 Build 0)  -->
<svg version="1.1" id="Layer_1" xmlns="http://www.w3.org/2000/svg" xmlns:xlink="http://www.w3.org/1999/xlink" x="0px" y="0px"
	 viewBox="0 0 624.7 441.8" style="enable-background:new 0 0 624.7 441.8;" xml:space="preserve">
<style type="text/css">
	.st0{fill:#BB8CC0;}
	.st1{fill:#FFFFFF;}
	.st2{font-family:'Aakriti';}
	.st3{font-size:7.02px;}
	.st4{font-size:7.0196px;}
	.st5{font-size:7.0193px;}
	.st6{fill:#F1C40F;}
	.st7{font-size:7.0194px;}
	.st8{fill:#37B878;}
	.st9{font-size:5.8536px;}
	.st10{font-size:3.8112px;}
	.st11{fill:#F16C97;}
	.st12{fill:#F16991;}
	.st13{fill:#80D2F7;}
	.st14{fill:#C3DE9B;}
	.st15{font-size:6.1772px;}
	.st16{font-size:7.0192px;}
	.st17{fill:#E60000;fill-opacity:0.8;stroke:#FFFFFF;stroke-width:0.153;stroke-linejoin:round;stroke-miterlimit:2.0397;}
</style>
<desc  style="-webkit-tap-highlight-color: rgba(0, 0, 0, 0);">
	Created with Raphaël 2.3.0 and Mapael undefined (https://www.vincentbroute.fr/mapael/)</desc>
<g>
	<path class="st0" d="M486.1,253.5c0.5,0,0.9,0,1.4-0.1c0.1,0.9,0.2,1.7,0.2,2.5c0.8,0.2,1.7,0.5,2.5,0.4c1.4-0.4,2.2-1.6,3.2-2.6
		c1.4,0.1,2.9-0.1,4.2,0.6c1,1.4,0.6,3.1,0.5,4.6c1.4,0.7,2.7,1.8,4.3,1.9c1.2,0.2,2.4-0.1,3.7-0.1c1.4,0.8,3,1.6,4.3,2.7
		c1,1.2,2.2,2.3,3.8,3c-0.7,3.6,0.4,7.2,2,10.4c-0.5,0.8-1.2,1.6-1.5,2.5c0.1,1.9,1,3.6,2.2,5c-2.3,2.1-1.8,5.4-3.3,8
		c-0.8,1.4-0.7,3-0.5,4.5c0.4,1.7-1.3,3.2-0.7,4.8c0.6,1.6-0.2,3.4-1.1,4.7c-2.2,1.1-4.7,0.8-7.1,0.7c-2.1,0.8-3.9,2.2-6,3
		c-1.4,0.4-2.9,0.1-4.2,0.3c-0.8,0.9-0.8,2.3-1.4,3.4c-1.6,0.8-3.4,1.1-5.2,0.9c-2.1-1.8-3.8-4.2-6-5.9c-0.8-0.6-1.9-0.6-2.8-0.8
		c-0.7-1.8-1.3-3.5-2-5.3c-1.5-1.6-3.6-2.5-5.7-3.1c0.8-1.5,1.6-3.2,3.3-3.8c2.7-1.2,2.5-4.6,3.9-6.8c1.1-1,2.1-2,3.4-2.8
		c1.2-0.3,2.3-0.4,3.5-0.6c1.4-3.2,0.6-6.6-0.1-9.8c0.2-2.4,1-4.7,0.5-7.1c-1-2.3-3.9-4.2-3.3-7.1c0.5-1.4,1.1-3,2.3-4
		C485.7,256.7,485.7,255,486.1,253.5z"/>
	<path class="st0" d="M576.5,265.3c0.6,1.1,1.2,2.2,2,3.2c1.5-0.3,3.1-0.7,4.6-0.5c1.1,0.5,1.7,1.6,2.8,2.1c1.5,0.3,2.7-0.8,4-1.2
		c1.3,0.3,2.5,0.9,3.9,1.1c0.4,0.7,0.8,1.4,1.3,2c1-0.4,1.8-1,2.9-1.2c1.6,0.5,3,1.3,4.6,1.9c-0.5,0.9-1,1.7-1.5,2.5
		c1.4,1.4,0.5,3.4,0.1,5c-0.5,0.9-1.4,1.4-1.8,2.3c-0.2,1.3-0.1,2.5-0.2,3.8c-0.4,1.1-1.4,1.8-1.9,2.8c-0.3,0.8-0.4,1.7-0.6,2.5
		c-0.7,1.3-2.1,2.1-2.5,3.5c-0.7,2.4-1.3,4.8-2.4,7c0.8,1.1,1.5,2.2,2.3,3.3c-1.4,1.4-2.9,3-3.3,5c-0.7,2.7-1.8,5.5-4.2,7.1
		c-1.2,1.3-3,0.2-4.4,0.7c-1.9,0.7-4-0.1-6,0.5c-2.7,0.9-5.5-0.1-8.3-0.2c-1.5-0.4-2.2,1.9-3.7,1.3c-1.5-0.8-3.1-1.4-4.7-1.2
		c-2.9,0.4-5.9-1.3-7-3.9c-1-2.1-3-4.1-2.2-6.5c0.9-3.8,1.3-7.8,2.3-11.5c0.3-1.6,2-2.2,3-3.3c0.6-2.3,1.1-4.6,1.9-6.9
		c1.2,0.6,2.7,1.4,3.9,0.7c0.3-0.7,0.5-1.4,0.7-2c0.5-0.2,1.1-0.4,1.6-0.6c0.2-2.5,1.6-4.8,1.7-7.3c0.7-2,3.2,0.9,4.2-0.9
		c1.3-1.6,2-3.7,4-4.7c0-0.8-0.3-1.7,0.1-2.4c0.9-0.7,1.9-1.2,2.9-1.7C576.3,267,576.4,266.1,576.5,265.3z"/>
	<path class="st0" d="M515,266.3c1,0,2.1-0.1,3.2,0.1c2.9,2,5.6,4.9,6.3,8.5c2,0.7,3.9,2.1,6.2,1.8c1.8,0.4,2.8-1.4,4.3-2.1
		c2.2-0.5,4.1,1.5,6.3,1.5c1.8-1,3.7-1.8,5.6-2.8c-0.3,0.6-0.5,1.2-0.8,1.8c1.3,0.3,2.7,1,3.9,0.3c1.9-1.1,4.2-0.5,5.9-1.8
		c0.7-0.4,1.4-1.1,2.1-0.6c0.5,1.2,0.3,2.7,1.3,3.5c1.8,0.7,2.9-1.2,4.2-2c0.1,1.9,0.8,3.9,0.1,5.8c-0.5,1.2-0.8,2.3-1.3,3.4
		c-0.9,1.1-1.8,2.2-2.5,3.5c-1-0.5-1.8-1.5-3-1.5c-1.7,2.1-1.4,5-2.4,7.4c-1,1.2-2.5,1.9-2.9,3.6c-1.2,4.4-1.8,9-2.5,13.5
		c0.5,3.2,3,5.7,4.3,8.6c-2,2.2-3,5-3.5,8c-1.3,0.6-2.6,1.2-3.8,2c-1.1-0.6-2.1-1.9-3.5-1.8c-2.2,0.4-4.4-0.6-6.5,0.5
		c-0.8-1.5-1.7-3-3.1-4c-1-0.6-0.8-1.8-0.6-2.8c0.4-1.3-0.9-2.2-1.3-3.4c0-1,0.3-2,0.5-3c-1.4-1.5-3.1-2.6-4.7-3.7
		c0-1.5,0.1-2.9,0.3-4.3c-1-0.4-2-1.4-3.2-0.9c-2.1,0.7-4.2,1.2-6.4,1.7c-1.6,0.3-2.9-0.8-4.2-1.4c0.9-2.1-0.2-4.4,0.7-6.5
		c0.8-1.8-0.7-3.7,0.3-5.4c0.7-1.6,1.4-3.3,1.7-5c0.2-1.7,1.4-2.9,2.2-4.3c-1.4-1.2-2.7-2.8-2.3-4.7c0.6-1.2,1.3-2.2,1.9-3.4
		c-1.2-1.1-1.7-2.8-2.4-4.2C514.7,270.2,515,268.2,515,266.3z"/>
	<path class="st0" d="M465.9,304.9c1.4-1.5,2.6-3.4,4.5-4.4c2.1,0.5,4.1,1.4,5.4,3.2c0.8,1.6,1.4,3.4,2.1,5c1,0.3,2.2,0.3,3.1,1
		c2,1.7,3.7,3.8,5.6,5.7c2.3,0.5,4.7-0.2,7-0.6c0.1,2-0.3,4.1-1.2,5.9c-1.7,0.8-3.3,1.8-4.7,3c-1.3,1.2-3.3,0.4-4.5,1.7
		c-2.1,2.1-5,3.1-7.6,4.4c-1.6-1.3-3.2-2.6-5-3.6c-1-0.4-1.1-1.5-1.4-2.2c-2-0.4-3.9-1.4-5.8-2c-1,0.2-1.9,0.8-2.9,1.2
		c-0.3-0.5-0.4-1-0.6-1.5c0.5-1,1.4-1.7,2-2.6c0.1-1.3-0.9-2.3-1.2-3.5C460.9,311.5,462.7,307.5,465.9,304.9z"/>
	<path class="st0" d="M516.4,307.8c3.2-0.1,6.2-2,9.4-1.6c-0.1,1.6-0.3,3.3,0.1,4.9c1.5,1,3.1,1.7,4.4,3c0.2,1-0.5,2-0.7,3
		c0.6,0.7,1.1,1.4,1.6,2.2c0.1,1-0.3,2.1-0.1,3.1c0.6,1.3,2,2,2.8,3.2c0.9,1.4,1.9,2.8,2.7,4.2c-1.8,2.9-5.2,4.3-6.8,7.4
		c-0.3,1.5,0.8,3,1.2,4.4c-1.3,1.9-2.8,3.9-3.3,6.3c-3.7,0.6-7.1,2.3-10.8,3.2c-1.1,0.3-1.7-1-2.4-1.5c1.6-1.9,0.3-4.1-0.4-6.1
		c-0.3-2.8,0.2-5.6-0.6-8.3c-1.1-0.5-2.2-1.1-3.3-1.5c1.3-3.6,2.4-8.1-0.1-11.4c2.1-0.6,4.5-1.4,5.5-3.6c-0.6-2.3-2.2-4.4-3.8-6.2
		c-0.5-1.3-1-2.5-1-3.9c0.4-0.9,1.2-1.5,1.9-2.3C513.9,306.9,515.1,307.6,516.4,307.8z"/>
	<path class="st0" d="M504.3,308.1c1.8-0.1,3.6,0.1,5.5-0.1c0.3,1.8,0.7,3.5,1.3,5.3c1.3,1.5,2.7,3.2,3.7,4.9
		c-0.7,2.4-3.5,2.7-5.5,3.5c0.2,1.3,0.9,2.5,1.4,3.8c0.7,2.5-0.4,5.1-1.1,7.5c-0.5,1.9,2,2,3.2,2.7c0.6,2.6,0.2,5.3,0.4,7.9
		c0.5,1.4,1.1,2.8,1.6,4.2c-1.4,2.4-4.4,2.7-6.9,3c-1.5,0.2-2.7,1.3-4.1,1.7c-1-0.2-1.9-0.5-2.8-0.8c-0.5-2.4-1.2-4.9-1.2-7.4
		c-0.1-1.3-0.1-2.7-1-3.6c-1.7-2.1-3-4.5-4.4-6.8c-0.7-1.3-2.3-1.6-3.6-2.1c-1.5-0.5-3-1.4-4.7-1.2c-1.6,0.1-2.7,1.3-3.8,2.2
		c-1.1,0.8-2.5,0.8-3.8,1.1c-0.9-0.8-1.7-1.6-2.6-2.4c1.6-2.1,4.6-2.5,6.8-3.9c0.8-0.6,1.4-1.3,2.2-1.8c1.5-0.5,3.2-0.6,4.4-1.7
		c1-0.9,2.2-1.6,3.5-2.2c1.2-0.5,1.1-2,1.5-3c0.8-2.5-0.2-5,0.1-7.5c1.3-0.1,2.6-0.1,3.9-0.2C500.3,310.7,502.1,309,504.3,308.1z"/>
	<path class="st0" d="M590,314.9c1-1.8,1.2-3.8,2-5.7c0.1,1-0.1,2.1,0.1,3.1c0.4,0.7,1.1,1.3,1.6,2c-1.1,2.3-2.4,4.6-2.7,7.2
		c-1,2.8-0.4,5.9-1.7,8.5c-0.4,0.9-0.7,1.7-0.9,2.6c-1.6,0.2-3.2,0.4-4.7,0.6c-2.6,0.5-4.7,2.3-6.6,4c-1.1,1-2,2.2-3.5,2.6
		c-1,0.2-2.1,0.1-3.1,0.3c-1.4,1.1-2.6,2.3-3.6,3.7c-1.4,2.4,0.7,5.2-0.6,7.6c-2.2,0.4-4.3,1.7-6.6,1c-1.2-0.7-2.2-1.5-3.5-1.9
		c-0.5-2.2-1-4.6-2.3-6.5c0.7-0.7,1.4-1.3,2-2c1-1.2,0.3-3.2,1.7-4c1.7-1.2,2.5-3.3,4.5-4.2c2.1-1.4,4.3-2.7,6.7-3.6
		c0.2-0.9,0.3-1.7,0.4-2.6c0.9-0.6,1.7-1.2,2.5-1.8c0.1-3.3-4-3.6-5.1-6.3c3.7,0.5,7.4,1.1,11.1,0.1c2.6,0.1,5.2-0.4,7.7-0.1
		C587.3,318.4,589.2,317,590,314.9z"/>
	<path class="st0" d="M554.1,318.9c1.7,0.8,3.7,1.1,5.6,1c1.3-0.1,2.5,0.7,3.8,1c2.9,0.6,5.7,2,7.5,4.3c-0.9,0.6-1.8,1.2-2.8,1.8
		c-0.1,0.9-0.2,1.7-0.2,2.6c-2.8,1-5.3,2.5-7.6,4.1c-1.2,1.1-2.2,2.4-3.6,3.5c-1.3,0.9-0.9,2.7-1.5,4c-1.5,1.7-3.6,2.5-5.6,3.4
		c-0.2-1.8-0.6-3.6-1-5.4c-0.7-1.6-2.2-2.8-2.5-4.6c-0.5-1.7,0.1-3.6,0.7-5.3c0.7-1.3,2.3-1.4,3.4-2.3c0.6-0.9,0.7-2,1-3.1
		C551.7,322.1,552.9,320.4,554.1,318.9z"/>
	<path class="st0" d="M537.2,327.5c1.9,0.3,3.8,0.3,5.6,0.2c1.1,0.4,2,1.2,3.1,1.8c-0.9,2.6-1.4,5.8,0.6,8c2.1,2.2,1.9,5.5,2.3,8.4
		c1.7-0.3,3.9-2,5.3-0.1c0.8,1.8,0.9,3.8,1.4,5.7c1.2,0.3,2.5,0.7,3.5,1.6c-2.5,0.3-5-0.2-7.6-0.4c-1.3,0.2-2.2-0.8-3.4-1.2
		c-1.6,0.7-2.8,2-4.1,3.1c-1.8-0.5-3.6-1.1-5.4-1.8c-2.8-1.1-5.8,0.6-8.6-0.5c-0.4-1.7-1.5-3.3-1.1-5.2c0.7-1.8,2-3.3,3.1-4.8
		c-0.4-1.5-0.9-3.1-1.4-4.6c1.5-2.3,3.8-3.8,5.8-5.7C537.5,330.8,537,329,537.2,327.5z"/>
	<path class="st0" d="M473,329c0.7,0.6,1.5,1.2,1.7,2.1c0.6,1.6,1.9,2.9,3.4,3.7c1.2-0.1,2.5-0.4,3.7-0.8c1.5-0.9,2.7-2.5,4.5-2.7
		c1.8,0.4,3.5,1.2,5.2,1.6c1.3,0.3,1.9,1.5,2.6,2.5c1.1,1.7,2.1,3.6,3.4,5.2c0.6,0.7,1.3,1.5,1.2,2.5c-0.1,2.7,0.5,5.4,1.1,8
		c0.3,1.9,2.7,2,4.2,2.4c1.5-0.6,2.7-1.8,4.2-2c1.9-0.3,3.7-0.8,5.6-1.1c0.7,0.6,1.4,1.2,2,1.8c3.7-0.7,7.1-2.2,10.7-3.3
		c1.3-0.2,1.8,1.4,2.4,2.2c-2.3,6-7.1,10.6-11.6,15c-1.3-0.9-2.4-2.2-3.9-2.9c-1-0.5-1.8-1.2-2.7-1.8c-0.9,2.1-2.4,4-4.4,5.2
		c-0.6-0.6-1.1-1.1-1.7-1.6c-1.9,0.4-3.8,0.9-5.6,1.7c-0.6-0.6-1.1-1.3-1.7-1.9c-1.5,0.6-2.8,1.4-4,2.3c0.1-1.2,0.5-2.4,0.2-3.6
		c-1-1.5-2.8-2.2-4.4-2.9c0.2-3.7-2.5-6.4-3.7-9.7c-2,0.1-4.1-0.2-6.2-0.1c-2.9,0.3-5.3-1.8-8.2-1.6c-2.9,0.2-5.8,0.4-8.6,0.9
		c1.2-1.2,2-2.7,3.4-3.6c1.8-0.5,4.2-0.1,5.2-1.9c0.5-1.5,0.7-3.2,1.3-4.6c-0.8-1-1.8-1.8-2.2-3.1c0.4-1.5,1.5-2.7,1.8-4.2
		C472.1,331.6,472.4,330.2,473,329z"/>
	<path class="st0" d="M584.3,334.1c2.1-0.3,4.4-1,6.4,0.1c0.3,1.8,0.6,3.6,1.4,5.2c1.1,0.1,2.1,0.2,3.2,0.3c0.6,1.7,1.8,3.1,3.5,4
		c-0.3,1-0.7,2-0.4,3.1c0.6,0.5,1.3,0.9,1.9,1.4c0.1,0.9,0,1.8,0.2,2.8c0.6,1.3,2.1,2.1,2,3.7c0.1,0.7,0.1,1.4,0.1,2.1
		c-0.9,0.1-2.4,0.1-2.4,1.4c-0.1,1.5-0.5,3-1.5,4.1c-1.4-1.6-0.9-3.7-0.8-5.6c-1.7,0.8-3.4,1.9-3.9,3.8c-0.6-0.1-1.2-0.2-1.8-0.2
		c-1.2,2.1-3.6,3.3-5.9,3.8c-1.5,0.8-1.7,2.7-1.6,4.2c-0.9-0.3-1.8-0.7-2.8-0.7c-1.1,0.3-2,0.9-3.1,1.4c-1.4-0.9-2.6-2.1-4.3-2.5
		c-2.3-1.6-4.7-3.2-7.2-4.5c0.1-3.4-2.7-5.9-4.7-8.2c1.5-0.6,3.2-0.7,4.6-1.5c2.1-2.4-0.9-6,1.3-8.4c0.7-1,1.5-1.9,2.4-2.6
		c1.3-0.4,2.8-0.2,4-0.7c1.1-0.4,1.8-1.3,2.6-2C579.3,336.5,581.5,334.5,584.3,334.1z"/>
	<path class="st0" d="M543.6,355.6c1.5-1,2.9-2.1,4.3-3.2c0.9,0.6,1.8,1.3,3,1.3c1.9-0.1,3.8,0.6,5.7,0.4c1.7,0.1,3.7-0.5,5.3,0.7
		c2,1.1,2.8,3.4,4.1,5.2c-1.3,2.9-1.6,6-2.4,8.9c-0.4,1.5,0.4,3,0.7,4.4c-0.2,1.3-1,2.5-0.7,3.9c0.5,2.4,0.3,5,0.9,7.4
		c-0.1,1.1-0.6,2.2-0.5,3.4c0.1,1,0.6,1.9,0.9,2.8c-1.2,0.4-2.4,0.8-3.6,1.2c-2-1.4-4.1-2.6-6.2-3.9c-3.4-1.2-6.5,0.8-9.7,1.4
		c-2.4,0.4-2.2,3.4-2.8,5.2c-1.7-0.8-3.5-1.3-5.2-2c-2.3-2.9-1.7-6.8-1.7-10.2c0-2,2-3.2,2.8-4.8c0.3-1.4,0.4-2.8,0.7-4.1
		c0.5-1.4-0.7-3,0.3-4.3c1.6-2.2,0.5-5,0.7-7.5c0.7-1.6,2.1-2.8,2.8-4.4C543,356.7,543.1,356,543.6,355.6z"/>
	<path class="st0" d="M529.2,353.1c2.6,1,5.3-0.2,8,0.2c1.8,0.5,3.4,1.3,5.2,1.9c-0.2,2.4-2.2,4.1-3.3,6.2c-0.2,1.7,0.2,3.4,0.1,5.1
		c0.1,1.7-1.7,2.9-1.3,4.6c0.4,2-0.1,4.1-0.4,6.1c-0.8,1.5-2.5,2.5-2.7,4.3c-0.2,2.8-0.2,5.6-0.5,8.3c-0.8,0.7-1.8,0.4-2.8,0.5
		c-1.4-0.1-3.1,0.5-4.2-0.6c-1.4-1.1-3.4-1.9-3.9-3.8c-0.7-2.4-0.9-5-0.9-7.6c0.1-0.9-0.5-1.7-0.8-2.5c-0.6,0.1-1.1,0.1-1.7,0.1
		c-0.5,1.4-1,2.8-1.8,3.9c-1.8,1.1-3.9,1.3-5.8,1.6c-0.2-1.5-0.7-3.1-0.3-4.6c0.4-1.7,1.1-3.3,1.8-4.8c1.7-3.7,5.2-6.1,7.8-9
		C524.6,359.9,527.5,356.8,529.2,353.1z"/>
	<path class="st0" d="M598.8,363.3c1.5-1.6,2-3.7,2.5-5.8c0.7,0.5,1.3,0.9,2,1.3c0.1,2,0.1,4-0.6,6c-0.6,1.7-0.6,3.6-1.2,5.4
		c-1.1,2.8-2.5,5.5-3.6,8.2c-0.7,1.5-0.4,3.1,0.2,4.6c-0.2,1.4-0.5,2.8-1,4.2c-0.7,1.5-2.6,1.7-3.7,2.9c-0.6,0.9-0.7,1.9-0.9,2.9
		c-0.5,0.1-1,0.1-1.4,0.2c-0.4-0.7-0.7-1.4-1.2-2c-1.2-0.7-2.6-1-3.7-1.8c-1.2-1.5-1.9-3.4-2.9-5c-0.7,0.1-1.3,0.3-1.9,0.5
		c-1.5,0.2-1.4,2.1-2,3.2c-1.8-0.7-2.7-3.1-4.9-2.7c-0.3,1.3-0.5,2.7-1.1,3.9c-2,0.7-3.7-0.7-5.5-1.4c-0.7,0.7-1.4,1.4-2.1,2.1
		c-0.4-0.7-0.8-1.4-1.2-2.1c0.3-0.9,0.7-1.7,1-2.6c0.1-1.2-1.1-2.3-0.8-3.6c0.3-1.4,0-2.9-0.4-4.3s0.6-2.6,1.2-3.8
		c-0.5-0.9-1-1.8-1.2-2.8c-0.2-1.3,0.3-2.5,0.7-3.7c0.4-1.4,0.6-2.9,0.9-4.2c2.1,0.5,3.8,1.7,5.6,2.8c1,0.7,1.7,1.9,3.1,2
		c1.6,0.3,2.6,2.1,4.3,1.9c0.9-0.3,1.7-0.8,2.6-1.1c1.1,0.2,2.1,0.7,3.2,1.1c0.5-1.6,0.4-3.4,1.4-4.8c0.8,0.1,1.6,0.2,2.3,0.4
		c1.1-2.1,3.5-2.8,5.4-3.8c0.9-0.8,1.3-1.9,2-2.9C596.4,360.3,597.1,362.2,598.8,363.3z"/>
	<text transform="matrix(0.8347 0.5508 -0.5508 0.8347 489.0541 352.3744)" class="st1 st2 st3">pbok&apos;/</text>
	<text transform="matrix(1 0 0 1 492.9384 329.4764)" class="st1 st2 st4">vf]6fª</text>
	<text transform="matrix(1 0 0 1 520.0777 371.6981)" class="st1 st2 st4">;&apos;g;/L</text>
	<text transform="matrix(1 0 0 1 544.5668 373.5087)" class="st1 st2 st4">df]/ª</text>
	<text transform="matrix(1 0 0 1 577.8167 378.5496)" class="st1 st2 st4">emfkf</text>
	<text transform="matrix(1 0 0 1 576.1006 354.463)" class="st1 st2 st4">Onfd</text>
	<text transform="matrix(0.964 -0.2659 0.2659 0.964 571.4758 334.3535)" class="st1 st2 st4">kfFry/</text>
	<text transform="matrix(0.7156 0.6985 -0.6985 0.7156 534.1967 338.2045)" class="st1 st2 st4">wgs&apos;6f</text>
	<text transform="matrix(0.964 -0.2659 0.2659 0.964 567.184 303.0615)" class="st1 st2 st4">tfKn]h&apos;ª</text>
	<text transform="matrix(0.9968 7.946999e-02 -7.946999e-02 0.9968 523.3198 294.5028)" class="st1 st2 st5">;+v&apos;jf;ef</text>
	<text transform="matrix(0.9968 7.946999e-02 -7.946999e-02 0.9968 489.442 287.6717)" class="st1 st2 st5">;f]n&apos;v&apos;Da&apos;</text>
	<text transform="matrix(0.9968 7.946999e-02 -7.946999e-02 0.9968 464.2611 317.761)" class="st1 st2 st5">cf]vn9&apos;+uf</text>
	<text transform="matrix(0.964 -0.2659 0.2659 0.964 551.7286 332.9709)" class="st1 st2 st4">t]x|y&apos;d</text>
	<text transform="matrix(0.9996 2.780000e-02 -2.780000e-02 0.9996 515.3847 329.4858)" class="st1 st2 st4">ef]hk&apos;/</text>
</g>
<g>
	<g>
		<path class="st6" d="M341,304c1.2,0.1,2.5-0.1,3.7,0.2c1.4,0.5,2.2,2.2,3.8,2c3.1,0,6.4-1.2,9.4,0.1c3.2,2.2,7,3.4,10.1,5.8
			c0.9,1.7,0.7,3.9,1.5,5.7c1.1,2.4,0,5-0.7,7.4c-0.6,1.9-0.6,4-0.9,6.1c-0.7,1.9-2.3,3.3-3.3,5c-0.2,1.1,0.2,2.1-0.1,3.2
			c-0.5,0.7-1.1,1.2-1.7,1.8c-0.8-1.1-1.6-2.1-2.6-3c-1.2,0.7-2.4,1.5-3.8,1c-3.7-0.2-7.2-1.5-10.2-3.6c0.8-1.2,2.1-2.1,2.4-3.5
			c0.5-2.2,0.6-4.5,1-6.8c0.2-1.4,0.6-3-0.2-4.3c-1.3-2.4-2.4-4.9-3.3-7.4c-3.5-1.4-7.5-1.1-10.8-3.1c1.2-0.6,2.4-0.8,3.7-0.9
			C339.6,307.7,340.1,305.8,341,304z"/>
		<path class="st6" d="M369.2,312.1c2.8,0.2,5.5,0.5,8.3,0.1c1.1,2.3,2.7,4.3,3.9,6.5c0.7,1.2,2.1,1.8,3.3,2.4
			c-0.7,2-1.6,4.1-0.8,6.2c1.1,2.8,2,6,1.1,8.9c-0.4,0.9-0.3,1.9-0.4,2.9c-0.3,1-1,1.9-1.4,3c-1.1,2.8,1,5.9-0.5,8.6
			c-2-0.1-4.2-0.3-6,0.9c-1.2,0.7-2.5,0.3-3.7,0.1c0.5-0.7,0.9-1.3,1.3-1.9c-1.1-0.5-2.2-0.9-3.2-1.6c-0.8-1.1-0.1-2.9-1.1-3.9
			c-2-1.1-4.2-1.4-6.4-1.9c0.7-1.1,1.5-2.2,2.4-3.2c-0.3-0.8-0.5-1.6-0.8-2.4c1-1.2,2-2.5,2.9-3.9c1.3-1.8,0.6-4.2,1.2-6.3
			c0.6-3,2.3-6.2,0.9-9.1C369.5,315.7,369.4,313.9,369.2,312.1z"/>
		<path class="st6" d="M384.9,327.6c-0.9-2.1-0.5-4.4,0.8-6.2c0.8,0.1,1.7,0.1,2.5,0.2c1,0.5,1.7,1.3,2.8,1.8
			c5.7,0.3,10.8,3.1,15.6,6c-0.2,0.7-0.2,1.4-0.7,1.9c-1.8,2.1-3.8,4.1-5.4,6.4c-2.1,2.9,0.4,6.5-1.1,9.5c-1.4,2.5-2.7,5.2-4.1,7.7
			c-1.1,1.8-0.8,4.1-0.9,6.2c-2.7-0.4-5.5-0.8-8.1-1.6c-1.3-0.3-1.6-1.7-2-2.8c-0.9-1.7,0.6-3.5,0.3-5.3c-0.5-2.4-0.6-4.8-0.7-7.2
			c-0.2-2.1,1.6-3.7,2.1-5.7C386.3,334.9,386.4,331,384.9,327.6z"/>
		<path class="st6" d="M423.8,327.1c2.4-0.4,4.6,1,6.7,1.9c-1.9,1.7-1.6,4.3-2.5,6.5c-0.4,1.3-1.6,2.2-2.3,3.4
			c-0.5,1.6-0.6,3.3-1.1,4.9s-1.7,2.9-2.1,4.5c-0.4,2.2-1.8,3.9-2.8,5.9c-1.4-0.7-2.6-1.5-3.8-2.4c-1.1,0.7-2.2,1.2-3.4,1.4
			c-2.8,1.5-5.2,3.8-8.2,4.9c-1.2,0.3-2.4-0.2-3.6-0.1c-1.9,0.7-3.6,2-5.4,3c0.2-1.5,0.2-3.1,0.4-4.6c0.5-1.8,1.9-3.2,2.5-5
			c0.8-2.2,2.8-3.9,2.8-6.4c0.1-1.7-0.4-3.4-0.5-5c0.5-2.1,2.2-3.7,3.5-5.3c1.2-1.6,2.7-3,3.8-4.6c3,0.3,6.1,0.3,9.1,0.6
			C419.8,330.9,421.4,328.1,423.8,327.1z"/>
		<path class="st6" d="M430.1,330.9c0.5-0.6,1.1-1,1.6-1.4c0.7,0.8,1.4,1.6,2.2,2.3c0.9-0.3,1.8-0.7,2.8-0.7c1.1,0.5,2.5,0.9,3.1,2
			c0.1,1.5-0.2,2.9-0.1,4.4c-0.6,0.4-1.2,0.9-1.7,1.3c0.2,4.8-1.9,9.3-2.4,14c1.1,0.6,2.2,1.1,3.3,1.8c-1,1.7-2.2,3.4-2.5,5.5
			c-0.8,3.4,0,6.9-0.5,10.4c-1.2,1.6-3,3.1-5.1,3.2c-1.7-0.7-3.2-1.8-4.8-2.7c-2-1-1.8-3.7-1.8-5.6c0.3-3.1,0.9-6.9-1.6-9.3
			c-0.6-0.7-1.1-1.3-1.6-2c0.9-1.4,1.9-2.9,2.3-4.6c0.2-1.3,0.8-2.4,1.5-3.5c1-1.6,1.2-3.5,1.5-5.3c0.1-1.7,1.7-2.7,2.4-4.1
			C429.5,334.7,429.5,332.7,430.1,330.9z"/>
		<path class="st6" d="M440.6,335.2c0.8,1.7,0.8,4.3,2.9,5c3.7,0.6,7.6,0.6,10.9,2.8c2.8,1.7,5.7,3.3,8.2,5.4
			c-0.8,1-1.6,1.9-2.3,2.9c-1.8-1.2-3.2-3.3-5.6-3.3c-0.5,1.2-1.2,2.4-0.9,3.7c0.4,1.4,1.2,2.8,1.5,4.2c-0.5,2-1.3,4-1.1,6
			c0.9,2.2,3.9,3.8,3.3,6.5c-1.1,1.4-2.4,2.8-3.2,4.4c-2.7-1.5-5.3-3.3-8.3-4.2c-1.2,0.8-2.5,1.4-3.8,1.9c-3.1,1.3-5.2,4.5-8.6,4.8
			c-0.1-0.5-0.2-1-0.3-1.5c1.3-0.9,2.8-1.7,3.6-3.2c0.5-4.2-0.7-8.6,1-12.6c0.5-1.3,1.7-2.2,1.9-3.6c-0.8-1.1-2.3-1.7-3.5-2.4
			c0.6-2.4,1.5-4.8,1.9-7.3c0.4-1.8,0.4-3.6,0.9-5.4c0.5-0.5,1.1-1,1.6-1.4C440.7,337,440.6,336.1,440.6,335.2z"/>
		<path class="st6" d="M455.2,348.6c1.5,0.7,2.7,1.9,4,2.9c0.7,0.7,1.7,0,2.5-0.2c2.7-0.9,5.5-0.7,8.3-1.1c2.4-0.4,4.5,0.9,6.7,1.4
			c1.9,0.2,3.9-0.1,5.7,0.5c0.4,3.8-0.5,7.5-0.9,11.2c-1.3,3.4-1.4,7.1-1,10.7c0.4,1.5-0.8,2.7-1.4,3.9c-1.5-0.8-3.2-1.1-4.8-1.3
			c-2.9-1.6-5.9-4.3-9.4-3.4c-1.9,0.1-3.6,1-5.1,2.1c-1.3-1.2-2.7-2.5-4.6-2.3c0.9-1.4,2-2.7,3.1-3.9c1-3.1-1.8-5.3-3.4-7.5
			c0.4-1.9,1-3.7,1.3-5.7c-0.2-1.8-1.4-3.3-1.6-5C454.6,350.1,454.9,349.3,455.2,348.6z"/>
		<path class="st6" d="M483.4,352.1c0.3-0.1,0.9-0.1,1.2-0.1c1.3,3.1,3.7,5.8,3.5,9.3c1.3,0.7,2.8,1.2,3.9,2.2
			c1.2,1.1,0.3,2.9,0.3,4.3c1.8,0.9,3.2-0.7,4.6-1.6c0.7,0.6,1.3,1.2,2,1.8c1.8-0.8,3.6-1.5,5.5-1.7c0.2,0.7,0.3,1.4,0.5,2.1
			c2.5-0.9,4.7-2.7,6-5c1.2,0.7,2.7,0.9,3.7,2c0.6,0.6,1.2,1.2,1.8,1.8c-2.7,3-4.8,6.7-5.1,10.8c-0.1,1.6,0.2,3.2,0.3,4.8
			c-2.6,1.2-4.1,4.1-7,4.7c-1.5-0.2-2.8-1.5-4.4-1.2c-1.1,0.6-1.9,1.7-2.8,2.6c-1.2-0.6-2.3-1.2-3.5-1.8c-1.4-0.6-3.1-0.9-4.1-2
			c-1.1-1.1-2.5-1.6-3.8-2.3c-1-0.9-1.5-2.2-2.8-2.8c-1.1-0.6-2.3-0.9-3.5-1.3c0.6-1.5,2.1-2.9,1.7-4.6c-0.7-3.3-0.5-6.7,0.7-9.8
			c0.7-1.6,0.5-3.4,0.7-5.1C483.1,356.7,483.3,354.4,483.4,352.1z"/>
		<text transform="matrix(1 0 0 1 490.6386 377.3794)" class="st1 st2 st4">;Kt/L</text>
		<text transform="matrix(1 0 0 1 462.3433 364.6342)" class="st1 st2 st4">l;/xf</text>
		<text transform="matrix(1 0 0 1 439.7603 360.9901)" class="st1 st2 st4">wg&apos;iff</text>
		<text transform="matrix(-9.444001e-02 0.9955 -0.9955 -9.444001e-02 430.4807 341.0102)" class="st1 st2 st7">dxf]Q/L</text>
		<text transform="matrix(0.9969 -7.904000e-02 7.904000e-02 0.9969 404.6479 343.5947)" class="st1 st2 st4">;nf{xL</text>
		<text transform="matrix(0.2779 -0.9606 0.9606 0.2779 392.5505 347.4206)" class="st1 st2 st4">/f}tx6</text>
		<text transform="matrix(1 0 0 1 371.9398 335.1364)" class="st1 st2 st4">af/f</text>
	</g>
	<text transform="matrix(1 0 0 1 352.6045 322.5157)" class="st1 st2 st4">k;f{</text>
</g>
<g>
	<path class="st8" d="M421.3,235.9c0.7-2,1.8-3.8,2.4-5.9c1.5,0.4,1.5,2.2,1.8,3.4c0.7,2.8,0.7,5.7,1.3,8.5c0.9,1.4,2,2.5,2.9,3.9
		c-1.2,0.9-2.7,0.8-4.1,1.1c-2.5,0.9-5,1.6-7.6,2.2c-1.5-0.7-3.1-1.7-4.7-2c-1.2,0.2-2.4,0.6-3.6,1.2c-0.7,1-1,2.1-1.4,3.2
		c-1.5,0.6-3.2,1.1-4.1,2.5c-1.1,1.7-2.9,2.8-3.5,4.8c-3.2,0.1-5.3,3-8.4,3.4c-1.9,0.1-3.8-0.2-5.7-0.2c-0.1-1.2-0.1-2.3-0.2-3.5
		c-0.9-0.2-1.8-0.4-2.8-0.6c0.1-1.4,0.3-2.8,0.4-4.2c-0.7-0.4-1.3-0.8-2-1.2c0.9-0.6,1.8-1,2.6-1.7c0.5-0.8,0.7-1.7,1.1-2.4
		c0.7-0.7,1.6-1.2,2.4-1.7c-0.1-2.4,1.8-4.7,0.5-7c-0.9-0.9-2.2-1.5-3.1-2.5c-1-1.2-1.9-2.5-3-3.6c2.2,0.3,4.5,0.4,6.7,0.2
		c1.1,1.9,2.8,3.4,4.9,3.8c1.2-0.2,2.3-0.7,3.5-1.1c1,0.9,2.1,1.5,3.4,1.8c1-1.3,1.6-3,3.1-3.8c2-0.4,4-0.2,6,0.3
		c1.7,0.8,3.5,1.3,5.4,1.5c0.3,1.4,0.6,2.8,0.9,4.1C418.8,239.9,420.5,238,421.3,235.9z"/>
	<path class="st8" d="M378,233.8c0.9-0.8,2.2-1,3.3-1.4c1,1.9,2.5,3.7,3.8,5.4c1,1.3,3,1.7,3.5,3.4c-0.2,1.7-0.9,3.3-1,4.9
		c-1.1,0.7-2.5,1.3-2.8,2.7c-0.3,1.8-2.4,2-3.2,3.4c-0.7,1.5-2.4,1.5-3.6,2.1c-1.3,0.8-2.2,2.2-3.7,2.9c-1.2,0.3-2.5,0.2-3.7,0.2
		c0,0.4,0.1,1.2,0.1,1.5c1,0.6,2,0.9,3,1.6c0.7,1.4-0.3,2.7-0.4,4.1c-0.2,2.5-1.1,5.1-0.1,7.5c0.3,1,0.5,2,0.6,3
		c3.2,1.3,5.9,3.4,9.1,4.6c3-0.3,5.9-1,8.9-0.7c-1.2,1.6-3.1,2.3-4.3,3.9c-1,0.9-1.5,2.6-3,2.8c-1.3,0.4-2.7-0.3-4-0.6
		c-1.5-0.2-1.9-2-3.4-2.1c-2.5-0.1-5.3-0.5-7.5,0.9c-1.6,1-3.7-0.4-5.3,0.8c-1.1,0.8-2.3,0.1-3.5,0.1c-0.8,0.1-1.6,0.4-2.4,0.5
		c-0.1-2-1.3-3.6-3.2-4.3c-1.4,0.1-2.7,0.5-4.1,0.5c-1.7-0.5-3.6-1.1-4.9-2.4c0.6-0.6,1.2-1.2,1.8-1.8c-0.2-1.2-0.4-2.4-0.3-3.7
		c1.9,1.5,4.7,3.4,7.1,1.8c1.1-0.6,3.1-0.9,2.7-2.5c-1.1-2.3-3.5-4.1-3.3-6.8c-0.2-1.2,0.7-1.9,1.6-2.5c1.7-1.1,3-2.8,4.1-4.5
		c1-2.7,0.6-5.9,2.4-8.2c1.4,0.4,2.9,1.1,4.3,0.7c1.2-0.7,2.5-1.3,3.8-1.8c0.2-2.3,0.8-4.6,1.2-7c0.5-2.4,3.3-2.8,4.7-4.4
		C377,236.9,377,235.2,378,233.8z"/>
	<path class="st8" d="M429,247.3c0.8-0.5,1.4-1.2,2.1-1.9c0.9,0.8,2,1.4,2.9,2.2c1.1,1.6,1.5,3.5,2.7,4.9c1,1.1,0.1,2.7,0.8,3.8
		c0.8,2.5,3.5,3.5,5.1,5.4c-0.6,1.6-1.2,3.3-1.4,5c2.2,1.5,4.8,2.3,7.3,3.1c-0.7,1.6-1.9,2.9-2.8,4.3c-0.4,2.5,0.3,5,1.1,7.3
		c-0.3,1-1.5,0.7-2.3,0.8c-1.8-0.1-3.6,0.9-4.7,2.2c-0.3,1.1-0.1,2.3-0.8,3.3c-1,1.4-2,2.8-3,4.1c-1.8-1.3-3.2-3.8-5.8-3.6
		c-1.5-0.1-3-0.6-4.4-1c-0.6,0.8-1.2,1.5-1.7,2.2c-1.1-1.9-1.4-4.7-3.7-5.7c-1.9-0.9-3.7-2.1-5.5-3.2c-1.2-0.6-1.2-2.2-2.2-3.1
		c-1.5-0.1-2.9,0.4-4.3,0.6c-1.2-0.5-2.2-1.2-3.3-1.8c0.4-1.3,0.7-2.7,1.1-4.1c0.5-1.9,2.1-3.3,2.4-5.2c0.1-1.5-0.5-3.1,0-4.6
		c0.5-1.7,0.7-3.5,0.5-5.3c-0.9-1.3-2.3-2-3.6-3c1-1.1,2.3-1.7,3.8-2.1c0.5-1.4,0.5-3.4,2.3-3.7c2.3-1,4.6,0.6,6.4,1.9
		c2.5-1.2,5.4-1.5,8-2.7C426.9,247.4,428,247.5,429,247.3z"/>
	<path class="st8" d="M453.7,254.1c1.2-2,3-3.6,4.4-5.4c0.6,1.3,1.3,2.5,2.1,3.7c-0.6,1.2-1.3,2.5-0.8,3.9c0.8,2.4,0.6,5,1.2,7.4
		c1.3,0.2,2.7,0,4,0.1c1,0.3,1.5,1.4,2.4,1.8c1.5,0.6,3.1,1,4.5,1.5c1.3,0.8,2.6,1.7,4,2.4c1.1-0.7,2.3-1.3,3-2.4
		c0.7-1.1,2-1.6,3.1-2.2c0.9,1.4,2,2.7,2.8,4.1c0.6,2.6-0.2,5.3-0.9,7.7c-0.5,0.3-0.9,0.6-1.4,0.8c-1.5-1-2.9-2-4.6-2.6
		c-1.4,0.2-2.1,1.6-2.7,2.8c-0.9,1.8-0.5,3.9-0.1,5.8c-1.3,1.1-2.4,2.3-4,3c-2.9,0.9-3.9,4-5.2,6.5c-0.9,1.8-3.3,1.7-4.9,2.3
		c-3.6,1.2-6,4.4-7.4,7.8c-2.4-1.8-5.5-0.5-8.2-1.4c-0.6-0.5-0.6-1.3-0.8-1.9c-0.3-2.1-1.4-3.9-1.6-5.9c-2.2,0.6-4-0.8-6-1.4
		c0.9-1.5,1.8-3.1,3-4.4c0.8-1,0.4-2.5,1.1-3.5c1.7-1.7,4.2-1.5,6.3-1.8c1.1-2.4-1.1-4.5-0.9-6.9c-0.3-1.5,1-2.4,1.7-3.6
		c0.9-1.3,1.4-3,2.9-3.8c0.9-0.6,2.4-0.7,2.6-1.9c0.1-2.4-1.2-4.6-2.3-6.7c-0.1-1.8,0.4-3.7,0.2-5.6
		C452.1,254.2,452.9,254.2,453.7,254.1z"/>
	<path class="st8" d="M378.8,255c1.5-0.6,3.1-0.9,4.7-1.1c-0.3,1.2-0.8,2.3-0.9,3.6c0.4,1.4,2.1,1.4,3.3,1.7
		c0.1,1.2,0.1,2.4,0.2,3.6c2.1-0.1,4.3,0.2,6.4,0.1c3.3-0.1,5.5-3.4,8.8-3.3c0.9-1.6,1.8-3.3,3.6-4c1.5,0.1,3.6,1.2,3.4,3
		c0.1,1.4-0.3,2.9-0.7,4.3c-0.3,1.4,0.3,2.8,0.1,4.2c-0.4,1.6-1.7,2.8-2.2,4.4c-0.4,1.2-0.7,2.4-1,3.7c-2.9,0.3-5.8,0.4-8.6-0.4
		c-1.3-0.5-2.1,1-2.8,1.7c-0.9,1.3-2.6,1.8-4.1,1.9c-2.2,0.1-4.3,0.7-6.5,0.4c-2.6-1.2-5-2.8-7.5-4.1c-0.3-1.5-1-2.9-1.4-4.4
		c0.4-2.7,0.8-5.4,1.3-8.1c0-0.9-0.4-1.8-0.6-2.7c-0.9-0.3-1.7-0.6-2.5-1c1.4-0.3,3.1-0.2,4.3-1.2
		C376.9,256.6,377.7,255.7,378.8,255z"/>
	<path class="st8" d="M343.6,270.1c2-0.5,3.6,0.9,4.6,2.4c-0.6,0.8-1.6,1.6-1.4,2.8c0.3,1.8-1.1,3.2-1.2,4.9c1.4,0.8,2.8,1.6,4.4,2
		c1.7,0.4,3.4-0.2,5.1-0.1c0.8,0.4,1.5,1,2.2,1.5c-0.1,0.8-0.1,1.5-0.1,2.3c-1.3,1.5-3.4,1.3-5,2.2c0.4,1.3,1,2.7,1.2,4
		c-0.5,2.4-4.2,2.1-4.3,4.6c-0.2,1.4,0.4,2.7,0.8,3.9c0.7,1.5,0.1,3.2,0.1,4.8c-2.3,0.2-3.6-2.3-5.9-2.4c-1.2-0.1-2.7-0.8-3.7,0.2
		c-0.9,1.7-1.3,3.6-1.9,5.4c-1.7,0-3.2,0.8-4.4,2c-1.6-0.5-3.3-1-5-1c-2.9-0.1-5.6-1-8.4-1.7c-0.5-1.3-0.6-2.7-1.3-3.9
		c-2.5-1.2-5.2-2.1-7.6-3.5c-0.6-0.9-0.6-2-1.3-2.8c-1-0.3-2-0.2-3-0.2c-1,2.1-2.7,3.7-4,5.6c-0.6,0.8-1.5,1-2.4,0.8
		c-1.6-0.4-3.2-0.4-4.9-0.3c0.3-1.4,0-3.1,1.1-4.2c0.6-0.7,1.1-1.4,1.6-2c-1.5-0.2-3-0.3-4.4-0.5c0.8-0.6,1.7-1.1,2.8-1
		c4.1,0.2,8.4,0.2,12.3-1.1c2.4-1.1,3.1-4,5.2-5.5c1.7-1.1,3.7-1.8,5.7-2.5c1.8-0.6,3.3-2,4.8-3.1c1.5,0.4,3,1.1,4.6,1
		c1.8-0.6,2-2.6,2.8-4.1c0.8-0.8,1.8-1.2,2.8-1.8c-1-1-2.2-1.7-3.5-2.5c0.5-0.6,0.7-1.7,1.7-1.7c2.3-0.4,4.8-0.7,6.9-1.9
		C341.5,271.9,342.4,270.8,343.6,270.1z"/>
	<path class="st8" d="M392.8,278.7c0.6-1.1,1.4-2.1,2.1-3.1c2.7,0.7,5.5,0.5,8.2,0.7c1.8,0.6,3.3,1.9,4.7,3.1
		c1.3-0.3,2.6-0.8,3.9-0.9c0.8,0.1,1,1,1.5,1.5c-1.6,1.1-3.4,1.9-5.1,3c-1.3,0.8-2.7-0.1-4-0.2c-2.5,0.4-4.3,2.3-6,4
		c-1.2-0.6-2.5-1.9-3.9-1.1c-1,1.7-1.5,3.6-1.1,5.5c0.3,1.4-1,2.3-1.7,3.3c-0.5-0.3-1-0.6-1.5-0.9c-0.3-1.9-0.6-3.9-1.4-5.6
		c-0.7-0.9-2.3-1.7-1.5-3.1c1.2-1.6,2.8-2.8,4.3-3.9C392.2,280.5,392.3,279.5,392.8,278.7z"/>
	<path class="st8" d="M475.6,283.9c-0.5-2.7-0.9-6.5,2-8c1.5,0.5,2.8,1.5,3.7,2.7c1.1-0.3,2.1-0.6,3.2-0.8c0.4,2.3,0.7,4.6-0.1,6.9
		c-1.1,0.3-2.3,0.4-3.4,0.7c-1.3,0.9-2.7,1.9-3.8,3.2c-1,1.8-1.4,3.9-2.5,5.7c-1.1,0.9-2.4,1.3-3.2,2.4c-0.9,1.3-1.4,2.9-2.8,3.9
		c-1.6,1.3-2.8,3-4.4,4.3c-1.3,1-1.8,2.6-2.7,3.9c-1.2,1.7-1.4,3.9-1.8,5.9c-0.4,1.4,0.7,2.7,1.3,3.9c-1,1-1.8,2.1-2.6,3.3
		c-1.1,0-2.1,0.2-3.2,0.1c-0.9-0.4-1.6-1.1-2.5-1.5c-2.9-0.9-5.3-2.9-7.7-4.6c-1.5-0.8-1.2-2.8-2.2-3.9c-3.5-2.4-7.6-3.8-11.4-5.9
		c-0.1-1.8-1.1-3.8-0.1-5.5c0.9-1.5,0.5-3.6,2-4.7c1-1.1,2.1-2.9,3.8-2.3c1.6,0.5,3.1,1.3,4.7,1.8c1.3,2.2,1.3,4.8,2.4,7
		c2.8,1.4,6.4-0.4,8.8,2c1.3-1.1,1.6-2.7,2.5-4c1.5-2.1,3.6-3.9,6.1-4.5c1.4-0.5,3.3-0.6,4.2-1.9c1.4-2.2,2.1-5.3,4.7-6.5
		C472.5,286.5,473.9,285,475.6,283.9z"/>
	<path class="st8" d="M410.5,282.7c1-0.7,2.1-1.1,3.3-1.3c2.2,0.6,3.9,2.4,6.1,3.2c2.7,1.1,2,5.2,4.5,6.4c0.6-0.8,1.1-1.6,1.6-2.5
		c1.8,0.5,3.7,0.5,5.5,0.8c1.4,1,2.5,2.3,3.7,3.5c-1.2,1.3-2.7,2.4-3.7,3.9c-0.5,1.7-0.8,3.4-1.7,4.9c0.1,1.4,0.6,2.8,0.8,4.2
		c-1.6,0.4-2.8,1.3-3.2,3c-1.7-0.5-4-0.3-4.9,1.4c-0.2,1.2-0.1,2.4-0.1,3.6c-1.1,0.2-2.1,0.5-3.2,0.2c-2.2-0.6-4.5,0.3-6.7-0.4
		c-1.3-0.4-2.7-0.5-3.7-1.5c-1.9-1.5-4-2.7-6.1-3.8c0.1-1.1-0.2-2.3,0.6-3.3c1.4-1.9,1.6-4.4,1-6.7c-0.6-1.1-2-1.4-3-2.1
		c0.4-1.6,0.8-3.1,1.3-4.7c1.7-0.4,3.7-0.4,5.1-1.5C408.9,287.8,410.1,285.3,410.5,282.7z"/>
	<path class="st8" d="M369.9,285c2-1,4.3-1.4,6.6-1c0.8,0.5,1.5,1.3,2.3,1.8c1.9,0.6,4,1.1,6,1c1.2-0.2,2.1,1,2.9,1.8
		c0.8,2.3,0.8,5,2.4,6.9c-0.7,2-1.5,4.2-0.8,6.3c0.5,1.2,0.8,2.6,1.7,3.5c1.5,0.5,3.1,0.8,4.4,1.6c3.5,1.9,7.8,2,11,4.6
		c-1.5,1.2-3.1,2.2-4.7,3.3c0.1,1.3-0.3,2.9,0.9,3.8c1.1,0.9,2.4,1.3,3.6,1.9c0.4,1.4,0.8,2.8,1.3,4.2c-0.7,1-1.3,2.1-1.8,3.2
		c-4.2-3.4-9.4-4.8-14.6-5.8c-1.6-0.9-3.2-1.6-4.9-1.8c-1.5-0.4-3.2-0.7-4-2.1c-1.4-2.3-2.8-4.6-4.2-6.9c-3.8,0.2-8,0.6-11.4-1.3
		c-3-1.6-6-3.3-9-4.8c-2.1-0.6-4.3-0.5-6.5-0.3c-0.2-1.6,0.3-3.4-0.5-4.9c-0.6-1.2-0.7-2.4-0.8-3.6c1.5-1,3.5-1.5,4.2-3.3
		c0.7-1.5-0.3-3.1-0.8-4.5c2.4,0.2,4.1-1.5,6.2-2.3c1.7-1,3.6,0.8,5.3-0.4C366.3,284.8,368.3,285.9,369.9,285z"/>
	<path class="st8" d="M399.3,287.6c0.9-1.9,2.8-3.2,4.8-3.8c1.7,0.4,3.5,0.6,5.3,0.3c-0.9,1.7-1.6,3.5-2.5,5.2
		c-1.9,0.8-4.5,2-6.1,0.2C400.2,289,399.2,288.5,399.3,287.6z"/>
	<path class="st8" d="M394.7,286.4c3,0.3,4.4,3.3,6.7,4.9c-0.4,1.8-0.8,3.6-1.1,5.5c1,0.6,2,1.2,3.1,1.8c0.1,1.5-0.1,3-0.8,4.3
		c-1,1.6-1,3.5-1,5.3c-2.3-0.7-4.6-1.5-6.7-2.7c-1-0.7-2.2-0.8-3.3-0.9c-0.5-1.3-1.1-2.5-1.4-3.8c0.1-1.2,0.2-2.5,0.5-3.7
		c1.1-1.5,2.5-2.8,3.4-4.4c0.1-1.2-0.2-2.3-0.3-3.5C394.1,288.2,394.4,287.3,394.7,286.4z"/>
	<path class="st8" d="M429.4,306.9c2.2-0.2,4,1.2,5.9,2c2.2,0.9,4.4,2.1,6.5,3.3c1.6,0.8,0.9,3,2.2,4c1.8,1.4,3.8,2.6,5.7,4
		c1.4,1.1,3.3,1.3,4.7,2.4c1,0.9,2.3,0.4,3.4,0.4c1.2-0.3,2.1,0.6,3,1.1c0.8-0.4,1.7-0.9,2.5-1.3c1.5,0.8,3.1,1.3,4.6,2.1
		c1,1.6,2.5,2.7,4.1,3.5c-0.6,1.9-0.6,3.9-1.6,5.6c-0.6,1.1-1.5,2.2-1.2,3.6c0.5,1,1.3,1.8,2,2.7c-0.4,1.3-0.7,2.8-1.1,4.1
		c-1.1,1.5-3.1,0.9-4.6,1.4c-0.9,0.5-1.5,1.2-2.2,1.9c-2.1-1.9-4.6-3.1-6.9-4.6c-2.6-1.3-5.2-3.1-8.3-3.1c-1.8-0.3-4.1,0-5.4-1.6
		c-0.9-1.9-1-4.2-2.2-6c-0.9-1-2.1-1.7-3.4-2.2c-1.1-0.2-2.1,0.4-3.2,0.7c-0.4-0.8-0.8-1.6-1.2-2.5c-2.9-0.4-5.3-2.1-8.2-2.4
		c-3.3,0.4-5,4.9-8.7,4.1c-2.4-0.7-5.2,0.3-7.5-0.8c-0.8-1.4-0.2-3,0.2-4.4c-0.5-1.6-1-3.2-1.6-4.7c-1.1-0.9-2.5-1.2-3.7-2
		c-0.6-0.8-0.5-1.8-0.6-2.7c1.6-1,3.3-2,4.7-3.3c2.3,2.4,6.2,2.8,9.4,2.4c1-0.2,1.8,0.5,2.8,0.8c1.1,0,2.2-0.3,3.4-0.4
		c0.3-1.5,0.2-3.1,0.5-4.5c1.1-1.4,3.1-0.9,4.7-1C428.5,308.6,428.9,307.7,429.4,306.9z"/>
	<text transform="matrix(1 0 0 1 431.9003 325.1187)" class="st1 st2 st4">l;Gw&apos;nL</text>
	<text transform="matrix(1 0 0 1 442.6549 310.6092)" class="st1 st2 st4">/fd]5fk</text>
	<text transform="matrix(1 0 0 1 453.1482 279.7868)" class="st1 st2 st4">bf]nvf</text>
	<text transform="matrix(1 0 0 1 411.1097 272.4326)" class="st1 st2 st4">l;Gw&apos;kfNrf]s</text>
	<text transform="matrix(1 0 0 1 394.2395 247.4423)" class="st1 st2 st4">/;&apos;jf</text>
	<text transform="matrix(1 0 0 1 383.8944 269.8815)" class="st1 st2 st4">g&apos;jfsf]6</text>
	<text transform="matrix(1 0 0 1 359.86 277.929)" class="st1 st2 st4">wflbª</text>
	<text transform="matrix(1 0 0 1 325.7589 295.4426)" class="st1 st2 st4">lrtjg</text>
	<text transform="matrix(1 0 0 1 360.3175 298.4614)" class="st1 st2 st4">dsjfgk&apos;&apos;/</text>
	<text transform="matrix(0.902 -0.4318 0.4318 0.902 405.3058 307.9096)" class="st1 st2 st4">sfe|]knf~rf]s</text>
	<text transform="matrix(0.8479 -0.4059 0.4318 0.902 390.0204 287.2974)" class="st1 st2 st9">sf7df08f}F</text>
	<text transform="matrix(8.580504e-02 0.9361 -0.9958 9.128001e-02 394.8435 290.4913)" class="st1 st2 st9">nlntk&apos;&apos;/</text>
	<text transform="matrix(0.9031 -0.2609 0.2775 0.9607 400.5978 288.8392)" class="st1 st2 st10">eQmk&apos;&apos;/</text>
</g>
<g>
	<path class="st11" d="M139.8,55.6c1.7,0.8,3.7,1,5.2,2.1c1.3,0.7,2.2,1.9,3.6,2.5c2.4,0.4,5,0.8,7.3,1.4c1.6,1.5,3.7,2,5.8,2.3
		c1,0.8,1.8,1.7,2.8,2.5c1.2-0.7,2.3-1.9,3.8-1.4c1.3,0.5,2.1-0.9,3.1-1.6c1.1,1,2.1,2.2,2.1,3.7c-0.3,2.1-1,4.1-1.9,6
		c1.9,1.6,3.4,3.6,5.5,5c0.4,0.8,0.9,1.6,1,2.5c-1.3,2-2,4.3-2.1,6.7c1.8,0.6,3.7,0.2,5.6-0.1c1.6-0.1,2.5,1.5,3.5,2.5
		c1-0.1,1.9-0.1,2.9-0.1c0.6,1.1,1.2,2.2,1.7,3.3c0.6-0.5,1.1-1,1.6-1.4c1.6,1.5,3.4,2.9,5.3,3.8c1.1,0.5,1.7,1.7,2.3,2.7
		c-1.1,1.2-2.2,2.3-3.4,3.5c0.7,2.4-1.8,3.9-1.9,6.2c-0.7,0.4-1.4,0.7-2.1,1.1c0.1,1.9-0.4,3.9,0.3,5.8c0.4,1.1-0.5,2-0.9,3
		c-1.3-0.6-2.4-1.3-3.8-1.6c-1.4,0.2-2.7,0.9-4.1,1.2c-1.1,0-2.2-0.2-3.3-0.3c-0.4,1-0.7,2-1,3.1c-2.1,0.3-4.2,0.5-6.3,0.9
		c-0.8-0.2-1.2-1-1.4-1.7c-0.7-2.2-2.1-4.1-3.1-6.1c-0.3-1-1.5-0.9-2.2-0.7c-1,1.1-1.8,2.3-2.9,3.3c-2.1,2-5,2.9-8,3.2
		c-0.8,1.2-1.4,2.8-2.8,3.5c-1.7,0-3.4-0.9-5-0.1c-1.7,0.8-3.6-0.2-4.6-1.7c-0.7-2.6,0.4-5.3,1.5-7.6c1.2-2.4,1.3-5.2,2.5-7.5
		c0.9-0.6,2-0.6,2.8-1.4c1-1.6,0.7-3.6,0.6-5.4c-1.5-0.3-3.1-0.4-4.5-0.8c-1.1-0.6-1.7-1.8-2.4-2.8c-4.2-0.5-8.3,0.8-12.5,1
		c-0.6,1.2-1,3.3-2.8,2.9c-1.1,0.1-1.3-1.1-1.5-1.8c-0.8-2,1.7-3.7,0.8-5.7c-0.3-2-2.2-3-4-3.2c-1.4-0.1-2.9,0.7-4.1-0.1
		c-1.4-0.9-2.9-1.6-4.5-2.1c0.3-1.6,0.6-3.2,0.8-4.7c0.3-1.5-0.8-2.7-1.3-3.9c1.4-0.6,2.8-0.1,4,0.5c1.6-1.7,3.5-3.2,5.4-4.4
		c0.1-1.8,0.3-3.7,1.3-5.2c1.4-2.4,0.1-5-0.3-7.5c0.8-0.5,2.3-0.5,2.1-1.7c-0.6-0.7-1.2-1.3-1.8-1.9c0.3-0.3,0.8-0.8,1-1.1
		c2,0.6,3.2,2.2,4.5,3.7c1.6,0.5,3.2,0.8,4.8,1.2c0.1-1.5,0.3-3,0.8-4.4c0.9,0.4,1.7,0.9,2.7,1C139,57.7,139.2,56.3,139.8,55.6z"/>
	<path class="st11" d="M196.6,102.2c1.4-2.2,3.2-4.5,5.6-5.8c1.4,3,2.9,6.3,6,8c-0.6,1-1,2-1.5,3.1c1.7,0.1,3.5,0,5.1-0.6
		c1.5-0.6,2.2,1.3,3.1,2.2c-1,0.6-2.1,1.1-2.9,2c-0.4,0.7-0.3,1.6-0.5,2.4c1.4-0.1,2.9-0.2,4.3-0.2c0.6,1.4,1,3.2,2.7,3.6
		c1.7,0.5,2.3,2.4,2.6,4c0.3,1.8-1.7,2.6-2.7,3.8c0.4,1.6,0.8,3.2,1.2,4.8c-0.9,1.1-1.7,2.4-2.6,3.5c-1.2,0.5-2.4,0.7-3.6,1
		c-0.2,1.8,0.1,3.9-1.1,5.5c-1.2,1.7-3.3,2.5-5.1,3.3c-0.5-0.9-0.4-2.3-1.4-2.7c-1.2,0.1-2.3,0.5-3.5,0.7c-1-0.2-2-0.4-3.1-0.5
		c-0.5-1.9-0.8-3.9-1.2-5.8c-2.3,0.2-3.8,2.1-5.3,3.6c-0.9-1.1-1.4-2.4-2.1-3.7c-0.2-0.8-1.1-0.6-1.6-0.7c-1.8-0.1-3.5-1-5.3-1
		c-0.5,1.7-0.9,3.5-1.2,5.3c-1.9,0.4-4,0.6-5.6,2c-1.1,1.1-2.5,0.1-3.6-0.6s-0.9-2.2-1.1-3.4c-1.5-0.1-3-0.6-4.1-1.5
		c-1.2,0.6-2.5,1.8-3.9,1c-0.9-0.2-1.9-1.3-2.9-0.6c-1,0.8-1.6,2.1-2.4,3.2c-2-0.3-3.9-1.2-5.8-1.7c-1.5-0.3-3.1,0-4.6,0.3
		c0.5-2-0.7-3.8-1.2-5.7c0.3-1.7,0.9-3.3,1-5c-0.2-1.1-0.7-2.2-1.1-3.3c1.7,0.2,3.5,1,5.2,0.4c1.3-0.8,1.7-2.3,2.9-3.3
		c1.5-0.4,3-0.6,4.5-1.1c2.7-1.3,4.5-3.8,6.7-5.8c1.2,2.4,2.9,4.5,3.6,7.1c0.2,1.1,1.2,1.6,2.2,1.9c2.4-0.7,4.8-0.7,7.2-1.3
		c0.2-0.9,0.3-1.8,0.4-2.8c1.4,0.1,2.8,0.5,4.1-0.1c1-0.3,1.9-0.9,2.9-0.9c1.4,0.4,2.8,1.2,4.1,1.8c0.6-1.1,1.6-2.2,1.5-3.5
		c-0.2-1.9-0.1-3.7-0.2-5.6c0.8-0.4,1.6-0.8,2.3-1.2C194.6,106.2,196.3,104.4,196.6,102.2z"/>
	<path class="st11" d="M222,120.1c2.3-0.2,4.5-1.3,6.8-1.1c0.3,1-0.1,2.3,0.7,3c1.6,0.5,3.4,0,5.1,0.3c2,1.7,3.7,3.8,5.7,5.5
		c1.1-1.1,2.5-2.4,4.2-1.6c0.5,0.8,0.8,1.6,1.1,2.4c0.9-0.4,1.7-0.8,2.6-1.2c1,1,2.1,2,3.3,2.7c-1.1,1.9,0.3,3.9,1.1,5.6
		c1.5-0.1,2.9-0.1,4.3,0.1c0.2,2.2,1.1,4.1,2,6.1c1.2,0.3,2.3,0.7,3.4,1.4c-0.2,1.1-0.4,2.2-0.7,3.4c0.7,0.8,1.5,1.4,1.9,2.4
		c0.2,1.2-0.1,2.5,0.3,3.7c1.1,1.7,3.4,2.1,4.2,4c0.6,1.2,0.6,2.9,1.8,3.7c0.6,0.5,1.5,0.4,2.2,0.5c0.7,2.3,3.4,2.1,4.9,3.4
		c0.6-0.2,1.1-0.5,1.6-0.7c0.5,0.8,0.9,1.6,1.4,2.4c-1.4,0.8-2.8,1.8-4.3,2.4c0.1,2.5-0.6,4.9-0.6,7.3c0.1,1.7-1.7,2.5-2.4,3.9
		c-1.2,2.1-3.3,3.5-4.8,5.4c-0.8,0.9-0.9,2.1-1.4,3.2c-0.6,0.7-1.3,1.2-2,1.8c0,1.3,0.7,3-0.3,4.1c-1.8,0.7-3.9,0.7-5.8,1.3
		c-1.3,0.6-2.2,2-3.8,1.8c-1.7,0-3.4,0.3-5,0.4c-2.1-0.7-4.4-0.8-6.5-1.7c-1.5-0.6-3.1-0.5-4.5-0.5c-0.5-0.9-0.7-2-1.5-2.7
		c-2.3-0.6-4.7-1.2-6.9-2.2c-1.2-0.6-2.2-1.7-3.6-1.9c-2.2-0.8-4.5,0.8-6.7,0c-1.7-0.6-3.3,0.2-4.9,0.6c-1.2-1.4-2.8-2.5-4.5-3.2
		c0.3-0.9,0.6-1.7,0.9-2.6c-0.8-1.2-1.7-2.4-2.2-3.8c-0.5-1.3-0.9-2.8-2.1-3.5c-1.2-0.2-2.5,0.1-3.7-0.3c-1-0.6-1.6-1.6-2.4-2.3
		c-1.9-0.4-3.8-1.2-5.8-1c-0.9,0.5-1.5,1.2-2.2,1.8c-1.2-0.4-2.3-0.8-3.4-1.3c0.2-1.5,0.7-3,0.7-4.6c-0.2-1.5,0.7-2.9,1.1-4.2
		c0.4-1,1.1-2,2.1-2.4c2.7-0.2,5.6-0.1,8.2-1c0.8-0.3,1.1-1.1,1.5-1.8c-1.2-1-2.4-1.9-3.2-3.4c0.7-2.2,1.7-4.5,3.9-5.6
		c0-3-3-5.3-2.2-8.3c1.3-0.3,2.7-0.7,3.9-1.1c0.3,0.9,0.6,1.8,0.9,2.7c2.2,0.1,4.2-1.2,5.9-2.6c1.8-1.5,1.8-4.1,1.9-6.3
		c1.2-0.2,2.4-0.5,3.6-0.8c0.7-1.4,1.6-2.8,2.8-4c-0.4-1.6-0.8-3.3-1.1-4.9c0.8-0.7,1.8-1.4,2.4-2.4
		C222.2,121.8,222,120.9,222,120.1z"/>
	<path class="st11" d="M184.5,133.5c1.7,0.6,3.5,1.5,5.4,1.2c0.9,1.4,1.3,4.3,3.5,3.9c1.3-1.1,2.4-2.5,4-3.4c0.1,2,0.4,3.9,1.2,5.8
		c0.7,0.2,1.4,0.5,2.1,0.7c-0.1,0.9-0.2,1.7-0.2,2.6c0.9,1.7,1.8,3.5,2.5,5.3c-2.4,1.3-3.2,3.8-4.2,6.1c0.8,1.5,1.8,2.9,2.9,4.2
		c-2.5,1.2-5.3,1.1-8,1.1c-2.1,0.5-3,2.9-4.9,3.6c-3,0-5.9-0.8-8.8-1.2c-1.6,1.9-4.1,2.7-6.1,4.2c-2,0.8-3.1,2.7-4.5,4.1
		c-0.9,0.8-0.5,2-0.6,3.1c-1.4,0.1-2.8,0.2-4.2,0.1c-0.7-1.4-1.3-2.8-2-4.1c-0.4-1.8,0.3-3.8-0.4-5.7c-1.3-0.9-2.9-1.4-4.1-2.6
		c-1.2-1.7-2.4-3.5-3.3-5.5c-0.8-2.1-3.3-2.7-4.2-4.6c1-0.5,2-0.8,3.1-1.1c0.6-1.9,1.8-3.5,3.5-4.6c0.6-2.4-0.1-4.9,0.6-7.4
		c1.8-0.5,3-2,3.9-3.5c2,1.1,4.4,1.3,6.4,0c1,0.8,2.1,1.3,3.4,1.3c-0.1,2.4,1.9,4.3,4.3,4.4c1.3,0.2,2.1-1.1,3.3-1.5
		c1.5-0.5,3-0.8,4.4-1.2C183.5,136.9,183.9,135.2,184.5,133.5z"/>
	<path class="st11" d="M148.2,137.6c1.3-0.2,2.6-0.7,4-0.6c1.5,0.4,3,1,4.5,1.6c-0.3,2.5,0.1,5-0.3,7.5c-1.7,1-2.9,2.5-3.3,4.4
		c-1,0.3-2.1,0.5-3.1,0.9c0.2,0.7,0.3,1.5,0.6,2.2c0.8,1.3,2.6,1.6,3.2,3c0.9,2.1,2.1,3.9,3.4,5.8c1.2,1.5,3.1,2.2,4.7,3.2
		c-0.1,1.3,0.2,2.8-0.3,4.1c-1.1,1.2-2.2,2.3-3.4,3.4c-1.1,1.1-2.7,0.6-3.9,0.6c-1.6-0.1-3.1,0.7-4.5,1.2c-1.4-1.3-2.6-2.9-4.3-3.8
		c-2.5-0.3-5.8-0.7-6.5-3.6c-1.6,0.4-3.2,0.6-4.8,0.7c-1.6,0.2-3-0.9-4.4-1.5c0-2.2,2-3.7,2-5.9c-1.2,0-2.5,0.5-3.5-0.5
		c-1.1-1.2-3.4-1.3-3.6-3.2c-0.3-1.6,0.5-3.1,0.7-4.5c0-1.3-0.8-2.7,0.2-3.8c2.2-3.1,5.6-5.6,9.4-6.2c0.4,1.4,0.9,2.8,1.4,4.1
		c2.2-0.1,4.4-0.4,6.6-0.7C145.3,143.6,147.3,140.8,148.2,137.6z"/>
	<path class="st11" d="M125,164.4c2.1-0.6,4.1-1.7,6-2.9c-1.2,1.7-2.7,3.9-1.5,6c1.5,1,3.3,2,5.1,1.5c1.2-0.2,2.4-0.3,3.6-0.5
		c1.2,2.5,4.3,3.2,6.8,3.4c1.7,0.9,2.8,2.6,4.2,3.8c1.7-0.4,3.4-1,5-1.3c0.6,1.5,0.6,3.2,0.3,4.8c-0.7,1.3-1.8,2.3-2.4,3.6
		c-0.5,1.4-0.7,2.9-0.6,4.3c-0.1,1.4,1,2.4,1.6,3.6c-0.8,1-1.5,2-2.4,2.9c-1.1,0.6-2.5,0.2-3.5,1.1c-0.9,0.6-1,1.7-1.3,2.7
		c-0.4,1.8-1.7,3.3-2.7,4.8c-2.8-1.4-5.3-3.5-8.5-3.9c-1.4-1.2-2.9-2.1-4.5-3c-1.8-0.9-1-3.2-0.8-4.7c0.4-1.1-0.6-1.8-1-2.7
		c-1.5-2.2-1.7-5.2-3.6-7.1c-1.7-1.8-2.8-4-4.5-5.7c-1.6-1.7-2.3-4.5-0.7-6.5C121,166.9,122.6,164.9,125,164.4z"/>
	<path class="st12" d="M174.3,168.4c1.9-1.6,4.4-2.3,6.2-4c3.1,0.4,6.2,1.3,9.4,0.8c-0.3,1-0.8,2-0.7,3.1c0.1,1.8-0.5,3.5-0.7,5.3
		c1.5,0.8,3,1.9,4.8,1.8c1.1-0.7,2-2.2,3.6-1.7c1.5,0.5,3.3,0.6,4.5,1.7c-1.4,0.3-2.8,0.6-3.7,1.7c-1.6,1.8-1.6,4.4-2.1,6.6
		c-2.5,0.7-4.5,2.4-6.8,3.5c-1.7,0.8-3,2.2-3.8,3.9c-1.6,0.2-3.9-0.6-4.9,1.2c-0.9,1.8-0.4,3.8-0.8,5.8c-1-0.1-2.1-0.6-3,0.2
		c-1.2,0.9-3.1,1.4-3.3,3.2c-0.3,1.5-0.9,2.8-1.8,4c-1.5-0.7-3.1-1.4-4.8-1c-1.8,0.4-1.9-1.9-2.5-3c-2,0.4-4,0.5-6.1,0.8
		c-2.2,0.5-4.5-0.2-6.7-0.6c-0.7-0.8-0.9-1.9-1.2-2.9c-0.4-1.3-1.4-2.3-2.1-3.4c1-0.2,2.1-0.3,3.2-0.7c1.2-1.1,2-2.5,3.1-3.8
		c-0.7-1.2-1.5-2.3-1.9-3.7c0-1.3,0.3-2.7,0.7-3.9c0.7-1.4,1.8-2.3,2.7-3.5c0.3-1.4,0.1-2.8,0.2-4.2c0.4-0.6,1.2-0.7,1.8-1.1
		c1.5-0.7,2.6-2,3.7-3.2c0.5,0.4,1,0.7,1.4,1.1c0.6,1,0.4,2.5,1.7,3c1.7,0.7,3.8,0.4,5.5-0.4c0.1-0.8,0.1-1.6,0.2-2.3
		C171.1,171,172.3,169,174.3,168.4z"/>
	<path class="st11" d="M88.2,174.4c2.1-1.3,4.7-1.8,7.2-1.3c2.5,1.7,4.3,4.6,7.5,5.3c2.3,0.4,4.8,0.3,7.1-0.7c1.3,1.1,2.4,2.5,4.1,3
		c1.1-0.3,2-1.1,3.1-1.6c1.5,0.2,3.6,0.8,3.8,2.5c0.4,2,1.5,3.8,2.8,5.4c1.2,1.5,1.1,3.6,1.2,5.4c1,0.2,2.1,0.3,3.1,0.4
		c0.2,0.9,0.2,1.8,0.5,2.6c0.9,0.9,2.1,1.3,3.2,1.9c1,0.5,1.6,1.6,2.7,1.9c3.4,0.5,5.9,2.9,9,4.2c1.7-2.1,3.1-4.5,3.7-7.2
		c1.8,1.4,2.3,3.7,3,5.8c1.7,0.4,3.5,0.7,5.3,1.2c1.9-0.1,3.8-0.7,5.7-0.7c-1,1.3-2.8,2.2-2.8,4c-0.6,1.8,1,3.1,1.4,4.7
		c0.7,1.7-0.3,3.4-0.7,5c-1.3,0.3-3,0.9-3.3,2.4c-0.1,1.9-0.4,3.9-0.2,5.8c-1.5,0.6-2.9,2.7-4.7,1.7c-1.5-0.5-1.2-2.5-2.5-3.2
		c-1.7-0.6-3.4-1.3-5.3-1.4c-1.2-0.1-1.7,1.7-3,1.4c-2.1-0.5-3.1-2.6-4.9-3.6c-3.7-2-6.3-5.4-9.5-7.9c-2.3-2.3-5.6-3.6-7.6-6.3
		c-1.9-2.1-4.3-3.6-6.9-4.7c-1-1.3-1.8-2.6-2.9-3.7c-1.3-3-1.4-6.3-3.3-9c-0.1-2.3-0.7-4.6-1.9-6.7c-0.4,0-1.1,0-1.5,0
		c-0.1,1.1-0.1,2.2-0.2,3.4c-0.8-0.5-1.5-1-2.3-1.5c0.1-0.7,0.2-1.3,0.3-2c-0.5-0.3-0.9-0.6-1.4-0.8c-0.9,0.2-1.6,1-2.3,1.6
		c-1.4-1.3-3.3-2.1-4.4-3.8C90.5,176.8,89.2,175.7,88.2,174.4z"/>
	<path class="st11" d="M207.8,201.4c3.1-0.5,5.1-1,5.6-4.6c0-2-2-3.6-0.5-5.1c0.9-0.4,1.4-0.9,1.7-1.4h-0.1
		c-1.3-2.1-3.5-2.9-5.4-4.3c0.4-0.9,0.7-1.7,1.1-2.5c-1.8-1.7-2.1-4.2-3.3-6.3c-2.4-0.1-4.7-0.9-7.2-0.7c-2.3,1.3-2.9,4.1-3.2,6.5
		c-0.2,1.8-2.3,1.9-3.5,2.7c-1.7,1.1-3.5,1.8-5.2,3c-1.2,0.8-1.6,2.2-2.6,3.1c-1.3,0.2-2.6,0-3.9,0.2c-1.6,1.6-0.8,4-1,6
		c-1.9,1.3-4.6,0.8-6.2,2.7c-0.5,1.1-0.7,2.3-0.9,3.5c2.2,2.7,6,2.8,9.2,3.3c2.4,0.1,4,2.4,4.7,4.5c1,2.1,3.8,1.6,5.7,1.5
		c0.5-0.8,1-1.7,1.5-2.5c1.2,0.1,2.3-0.1,3.5,0.1c0.6,0.5,1.2,0.8,1.8,1.2C202.8,208.5,203.8,201.9,207.8,201.4z"/>
	<text transform="matrix(1 0 0 1 226.961 164.3618)" class="st1 st2 st4">8f]Nkf</text>
	<text transform="matrix(1 0 0 1 162.4945 185.7753)" class="st1 st2 st4">hfh/sf]6</text>
	<text transform="matrix(1 0 0 1 166.4655 153.5765)" class="st1 st2 st4">h&apos;Dnf</text>
	<text transform="matrix(1 0 0 1 184.0535 127.166)" class="st1 st2 st4">d&apos;u&apos;</text>
	<text transform="matrix(1 0 0 1 148.9071 87.6131)" class="st1 st2 st4">x&apos;Dnf</text>
	<text transform="matrix(1 0 0 1 132.7488 162.3826)" class="st1 st2 st4">sflnsf]6</text>
	<text transform="matrix(1 0 0 1 133.6663 183.9031)" class="st1 st2 st4">b}n]v</text>
	<text transform="matrix(1 0 0 1 131.8206 210.7227)" class="st1 st2 st4">;&apos;v]{t</text>
</g>
<g>
	<path class="st13" d="M240.6,199.9c0.1-1.1-0.1-2.2-0.1-3.3c-0.8-0.1-1.6-0.2-2.4-0.2c-0.4-0.9-0.8-1.8-1.3-2.7
		c-3.2-0.7-6.5-1.5-9.1-3.6c-1.7-1-3.9-0.7-5.7-0.2c-1.2,0.4-2.3-0.5-3.5-0.6c-1.3,0.2-1.6,1.2-2.9,1.5c-0.4,0.5-0.9,0.9-1.7,1.4
		c-1.5,1.5,0.5,3.1,0.5,5.1c-0.5,3.6-2.5,4.1-5.6,4.6c-4.1,0.5-5.1,7-8.1,10.6c1.4,0.8,1.8,1,3,2.1c0.8,0.5,1.5,1.5,2.5,1.3
		c1.5-0.5,2.7-1.5,4.2-1.8c1.7-0.2,2.9,1.5,4.5,1.7c1.7,0.3,3.1,1.3,4.7,2c1.2,0.6,2.3-0.5,3.4-0.8c-0.7-1-1.4-2-2-3
		c0.9-0.2,1.8-0.2,2.7-0.3c0.2-1.2,0.4-2.4,0.8-3.5c1.5,0.4,2.9,1.1,4.3,1.6c0.2-0.3,0.6-1,0.8-1.4c-0.8-0.8-2.2-1.3-2.2-2.6
		c-0.2-0.9,0.1-1.9,1.1-2.2c3.3-1.1,6.8,0,10.2-0.6c0.1-0.8,0.2-1.7,0.4-2.4C239.6,201.7,240.8,201.1,240.6,199.9z"/>
	<path class="st13" d="M102.6,204.8c2.3-1.8,4.7-3.7,6.3-6.3c0.8,1.2,1.3,2.8,2.7,3.3c2.9,1,5.5,3.1,7.1,5.7
		c0.7,0.9,1.8,1.3,2.7,1.9c4.9,2.9,8.2,8,13.2,10.7c2,1.3,3.5,3.3,5.8,4c-0.6,1.3-0.9,2.7-1.3,4c-0.5-0.8-1-1.7-1.5-2.5
		c-1.6-0.3-3.3-0.4-5-0.3c0.5,3-0.5,6.3-3.3,7.8c-2.2,1-4.2,2.4-6.1,4c-2.3,2.4-2.9,6.1-1.4,9.1c-0.7,0.1-1.4,0.2-2.1,0.3
		c0.1-1.2,0.2-2.3,0.3-3.6c-1-0.9-1.9-2-2.4-3.3c-1-2.1-3.8-1.9-5.7-1.7c-0.2,0.8-0.3,1.6-0.5,2.4c-0.9,0-1.7,0-2.7,0.1
		c-0.2-1.6,0.3-3.3-0.3-4.8c-1.3-2.8-4.9-4.1-5.5-7.2c0.2-1.9,0.4-4.1-0.9-5.7c-3.4-1.4-7.1-1.9-10.6-3.2c-0.1-0.3-0.3-0.9-0.4-1.2
		c1.1-1.6,1.8-3.6,3.5-4.6C97.9,211.4,99.9,207.7,102.6,204.8z"/>
	<path class="st13" d="M159.5,205.8c1.2-1.3,2.4-2.5,3.5-4c0.7,1.1,0.9,2.5,2,3.3c1.7,0.1,3.4-0.2,4.9,0.5c1.1,0.6,2.1-0.1,3.1-0.5
		c2.7,2.9,6.9,2.3,10.5,3.3c1.2,0.8,2.3,1.9,2.8,3.4c0.5,1.2,1.6,1.9,2.6,2.9c-0.6,1.2-1.1,2.5-1.8,3.8c-1,1.3-2.3,2.3-3.6,3.4
		c0.7,1.4,1.4,2.8,2.2,4.1c-0.6,0.9-1.4,1.9-1.3,3.1c0.2,2.1,2,3.6,2.2,5.6c-0.5,1.8-1.4,3.5-1.6,5.3c-1-0.9-2-1.6-3.1-2.2
		c-1.1-0.6-1.5-1.9-2.5-2.6c-1.4-0.6-3,0.2-4.4-0.3c-2.5-0.7-5.3-0.4-7.9-1.2c-1.8-0.8-3.6,0.4-5.2,1c-1.7,1.9-2.9,4.2-3.2,6.7
		c-2.5-2-5.2-3.9-7.3-6.3c-1.7-1-3.3-2-4.7-3.5c-2.1-1.4-4.5-2.4-6.6-3.8c-0.1-2.2,2.1-3.4,3-5.2c1.6,0.5,3.2,0.8,4.7,1.3
		c1.2,1.1,1.4,3.2,3.2,3.4c2.2,0.8,3.9-1.3,5.9-2c-0.2-2.1-0.1-4.2-0.2-6.2c0.7-1.1,2-1.4,3.1-1.9c0.5-1.6,1.2-3.2,1-4.9
		C160.9,209.8,158,208,159.5,205.8z"/>
	<path class="st13" d="M250,227.9c-0.2-1.6,0.8-3.3-0.1-4.8c-0.6-1.3,0.8-2.4,1.3-3.5c-1.5-0.8-3-1.7-4.2-2.9
		c-2.3,1-4.9,0.8-7.3,0.2c-0.1-3.8-2.9-7.1-2-11c-2.1,0.7-4.2,0.3-6.4,0.1c-1.2,0.3-3,0.1-3.4,1.5c0.3,1.2,1.5,1.6,2.4,2.2
		c-0.2,1.1-0.5,2.2-1.1,3.2c-1.5-0.5-2.9-1-4.3-1.7c-0.3,1.1-0.4,2.3-0.6,3.4c-0.5,0.1-1.1,0.2-1.6,0.3c0.8,0.8,1.5,1.7,2.1,2.8
		c-0.9,0.1-1.7,0.3-2.6,0.4c0.8,1,2,1.7,2.4,3c0.6,1.8,1.8,3.3,2.7,5c2.2,1.6,4.2,3.9,7.1,4.1c0.8,1.8,1.7,3.5,2.4,5.2
		c0.6,0.2,1.2,0.4,1.8,0.6c0.8-0.4,1.5-1.4,2.5-1.2c3.9,0.5,8.1-1.3,11.7,0.7c-0.9-2.7-1.8-4.6-2.7-7.2
		C250.3,228.2,250.1,228.1,250,227.9z"/>
	<path class="st13" d="M193.3,213.9c0.9-0.5,1.3-1.4,1.9-2.2c3.9,0.1,6.8,2.9,9.8,4.9c2.2,0.7,3.8-1.4,5.9-1.6
		c1.3,0.4,2.2,1.4,3.6,1.6c2,0.4,3.6,1.8,5.6,2.1c1.7,0.4,3.7,1.3,4.1,3.2c0.5,2,2,3.5,2.8,5.5c-0.8,0.5-1.6,0.9-2,1.8
		c-0.8,1.6-2,2.9-2.7,4.5c-0.4,1.1-1.5,1.6-2.2,2.4c-1.4,1.6-2.7,3.2-3.7,5c-1.5-0.1-2.9-0.4-4.1-1.3c-1.1-0.9-2.6-0.9-4-1.1
		c-1.4,1.8-3.7,2.1-5.7,2.9c-2,1.1-1.8,3.7-2.1,5.6c-1.5-0.7-1.8-2.2-2.3-3.6c-1-0.4-2.2-0.8-3.3-0.5c-1.8,0.8-3.9,0-5.7,1.1
		c-0.8-1.7-2.2-3.1-3.1-4.7c-0.3-1.9,1.5-3.5,1.2-5.4c0.4-2.2-2.2-3.4-2.1-5.6c0.5-1.1,1.2-2,1.8-3.1c-0.9-1-1.7-2.1-2.5-3.2
		c1-0.9,2-1.9,2.9-3c1.2-1.4,1.4-3.3,2.5-4.6C191.1,214.2,192.2,214.1,193.3,213.9z"/>
	<path class="st13" d="M133.4,226.1c1.3,0.1,2.5,0.3,3.8,0.5c0.3,0.6,0.6,1.2,0.9,1.9c2.5,0.3,4.4,2,6.6,2.9c1.2,0.4,2,1.4,2.7,2.4
		c0.7,1.1,2.3,0.9,3.3,1.8c2.3,3.1,5.9,4.9,8.7,7.5c0.5,0.9,0.4,2.2,1.4,2.7c2,1.1,4,2.8,6.5,2.4c-0.1,0.8-0.1,1.6-0.2,2.4
		c1.1,0.5,2.2,1,3.3,1.5c-0.2,2-0.4,4-0.3,5.9c-2.4-1.2-4.8,0.3-7.3-0.3c-0.7,0.7-1.2,1.6-2.1,2.1c-1.9-0.2-3.9-0.9-5.8-0.7
		c-2.4,1.3-3.6,3.8-4.9,6.1c-2.5-0.8-4.3-2.9-6.5-4.1c-2.9-1.4-4.9-4-7.4-6c-1.3-1.6-3.5-1.5-5.3-2.3c-3-1.5-5.4-3.9-8.4-5.3
		c0.4-2.2-1.1-4.1-0.6-6.3c0.7-3.6,4.1-5.6,7.1-7.1C132.1,232.9,134.3,229.5,133.4,226.1z"/>
	<path class="st13" d="M225.9,229.2c0.6-0.8,1.6-0.9,2.3-1.4c1.5,1.6,3.5,2.9,5.7,3.2c0.7,1.8,2.2,3.4,1.9,5.5
		c-1.8,0.7-3.7,1.1-5.6,0.8c-0.8,1.3,0.4,2.3,0.8,3.4c-0.1,1.4-0.5,2.8,0.1,4.1c0.6,0.9,1.4,1.5,2.1,2.3c-1.2,0.6-2.5,0.1-3.8-0.2
		c-1.1,1.6-1.3,3.6-2.4,5.2c0.1,1.7,0,3.3-1.1,4.7c1.4,1.1,2.8,2.5,3.6,4.1c-0.3,1.4-1.9,0.8-2.9,1c-1.9-0.3-3.1,1.8-5,1.6
		c-2.3,0.1-4.8-0.2-6.6,1.6c-0.9-1.5-1.7-3.1-2.5-4.6c0.4-0.8,0.7-1.7,1-2.6c-1-0.2-2.1-0.2-3.1-0.5c-0.7-0.8-1.2-1.7-1.9-2.6
		c0.4-0.9,0.8-1.8,0.9-2.8c-2.8-0.8-6-1.5-7.8-4c-0.2-1.8-0.5-3.9,0.8-5.3c1.2-1.5,3.3-1.2,4.9-1.7c0.5-0.5,0.8-1.1,1.3-1.6
		c1.3,0,2.5,0.4,3.6,1.2c1.4,1.1,3.2,1.1,4.8,1.1c1.3-2.7,3.3-4.9,5.5-6.9C223.6,233.1,224.9,231.1,225.9,229.2z"/>
	<path class="st13" d="M165.2,234.2c1.3-0.4,2.4,0.7,3.5,1.3c2.9-1.5,6,0.9,9.1,0.2c1.4-0.4,2,1.3,2.9,2c1.6,1.2,3.2,2.3,4.9,3.3
		c1.4,0.8,1.9,2.5,3,3.7c1.3,0.9,2.8,0.1,4.2,0.1c1.5-0.1,3.2-1.4,4.6-0.5c0.5,0.8,0.7,1.8,1.3,2.5c2.6,2.7,5.6,5.3,9.4,6
		c-0.2,0.9-0.5,1.8-0.6,2.7c1.2,1.5,2.4,3.1,4.4,3.4c-1.2,3,2.2,4.9,2.4,7.7c0,2.1-2.9,1.8-3.5,3.5c-0.3,0.7-0.4,1.5,0.4,1.9
		c1.2,1.3,3.2,0.7,4.5,1.7c-0.8,0.6-1.3,1.6-2.2,1.9c-2.1-1.1-4.6-2.4-6.9-0.9c0.2,1.2,0.4,2.4,0.5,3.6c-1.3,0-2.6-0.4-3.9,0.1
		c-3.1,0.9-6.4,1.6-9.6,1.7c-1.5,0.1-3,1-4.5,0.7c-2.4-0.8-4-2.9-5.5-4.7c-2.1-1.8-4.9-2.8-7-4.7c-2.9-2.6-5.9-5.8-10-6.2
		c-2-1.1-3.2-3.3-4.6-5.1c0.4-0.5,0.7-0.9,1-1.4c1.6,0.3,3.1,0.2,4.6-0.4c1.2,0.3,2.4,0.8,3.8,0.5c-0.4-2.3-0.2-4.5,0.2-6.8
		c-1-0.8-2.2-1.3-3-2.2c-0.2-0.7-0.3-1.5-0.4-2.2c-2.5-0.3-4.8-1.3-6.9-2.8c-0.7-1.1-1.3-2.3-1.6-3.6
		C159.8,238.1,161.9,234.7,165.2,234.2z"/>
	<path class="st13" d="M241.1,236c3.5-0.4,7-0.3,10.5-0.6c-0.4,1.8-1,3.6-2,5.1c0.1,0.3,0.4,0.9,0.5,1.2c2.9,0.2,5.3,1.6,7.7,3
		c0.7,1,0.9,2.3,2,3.1c1.5,1.6,3.8,0.7,5.7,0.7c1.5,0.2,2.8,1.1,4,1.9c-0.1,1.1-0.4,2.3,0,3.5c0.7,1.4,1.9,2.3,3,3.4
		c-2.3,2.5-6,2-9,1.5c-1.2,1.7-2.5,3.4-4.6,3.9c-1-0.9-2-2.1-3.5-1.8c-1.8-0.3-2.4,3-4.2,1.9c-0.4-1.1-0.4-2.2-0.7-3.3
		c-1.1-1.3-2.5-2.3-3.6-3.6c-0.8-1.9-1.5-4.3-3.5-5.2c-2.2-0.1-4.3,1.5-6.6,1c-2.4-0.8-5-1.4-6.8-3.4c1.1,0,2.2,0.1,3.3,0.1
		c0.4-0.4,0.8-0.8,1.2-1.2c-0.9-1.2-2-2.1-2.8-3.3c-0.1-1.2,0.6-2.2,0.6-3.4c-0.3-0.6-0.7-1.2-1-1.8c2.1,0.3,4-0.9,5.9-1.6
		C238.4,236.8,239.9,236.6,241.1,236z"/>
	<path class="st13" d="M228.1,252.5c0.4-1,1-1.9,1.6-2.9c2.3,1.4,5,2.4,7.7,3c1.9-0.1,3.7-0.9,5.5-1.2c1.6,0.9,2.3,2.8,3,4.3
		c0.7,2.2,3.8,2.8,3.9,5.2c0.4,2.2,1.6,4.3,1.2,6.6c-0.2,1.4-1,2.5-1.5,3.8c0.1,1.3,0.5,2.5,0.3,3.9c-1.8-1.1-4.3-2.4-6.4-1.2
		c-0.6,0.3-1.2,0.6-1.7,0.9c-1.2-1.6-2.6-3.2-4.6-3.7c-2.2-1.3-4.8-1.7-7.4-1.2c-0.7,0.7-1.3,1.5-1.9,2.2c-4.4-0.3-9,1.4-13.4-0.1
		c-1.1-0.3-2.1-0.6-3-1.2c0.9-0.7,1.8-1.4,2.8-2.1c1.1-1.1,1.7-2.7,2.9-3.8c2.5-1.1,5.6,0.5,7.8-1.4c1.6-1.2,3.7-0.4,5.6-1.1
		c-0.1-0.8,0-1.5-0.1-2.3c-0.6-1.3-1.7-2.2-2.3-3.6C227.8,255.3,228.1,253.8,228.1,252.5z"/>
	<path class="st13" d="M255.5,261.8c1.2-0.8,1.8,1.2,3,1.4c1.5,0.1,2.9,0.3,4.4,0.6c3,0.5,6-0.9,8.9-0.3c1.6,0.2,2.4,1.8,3.5,2.9
		c1.2,0.1,2.1-1,3.1-1.6c1.1,0.8,2.4,1.5,3.9,1.6c2.2,0,3.7,2,5.7,2.5c1.4,0.2,2.7-0.5,4.1-0.8c1.7,0.4,3.3,1.2,5,1.2
		c1.5,0.1,3,0.5,4.4,1c-0.1,1.4,0.3,3-0.6,4.3c-0.9,1.2-1.4,2.6-1.9,4c-1.6-0.1-3,0.5-4.4,1c-3.3,0-6.6,0.2-9.8-0.4
		c-2.6,0.1-3.9,2.8-6.2,3.7c-1.8,1.2-2.8-1.5-3.7-2.6c-1.9,0.3-3.8,1.2-5.8,0.8c-2-0.7-4.1-1.6-6.3-1.4c-2.7,0.3-4.9-1.4-7.5-1.4
		c-1.7-0.6-3.2-1.9-4.9-2.5c0.1-1.4,0-2.9,0.1-4.3c1-2.3,1.7-4.7,1.3-7.2C253.2,263.6,254.2,262.6,255.5,261.8z"/>
	<path class="st13" d="M286.9,292.7c-0.5,0-2-1.5-3.1-1c0.5-1.5,2.5-2,3.1-3.1c1.9-5.7-5.1-2.5-9-3.8c-1.6,0.9-3.3,1.4-5.2,1.9
		c-1.4,0.3-1.1,2.3-1.7,3.5c0.4,3.8,0.7,6.7,1.2,10.6c2.3,1.5,3.7,3,6.1,4.5c2.6,1.7,5.7,2.5,8.2,4.5c0.7,0.5,1.3,1.1,2.1,1.5
		c1.3,0.3,1.9-1.1,2.7-1.9c-0.8-0.5-1.6-1-2.3-1.6c-0.7-1.1-0.5-2.8,0.2-3.8c1.2-0.6,4.1-0.3,5.4-0.2c1.7-1.5,0.8-4.5,2.5-6
		c-1.1-0.1-2.9,0.8-3.8-0.1c0-0.2-0.5-0.3-0.5-0.5C289.7,297.4,288.3,295,286.9,292.7z"/>
	<path class="st13" d="M230.3,270.8c3-0.1,5.9,0.8,8.4,2.3c0.8,0.7,1.2,1.8,2,2.5c0.7,0.2,1.5,0.2,2.2,0.3c0.8,2.4,1.7,4.8,1.3,7.4
		c-0.3,1.6,0.2,3.2,0.2,4.8c-0.5,1.7-1.6,3.3-1.7,5.2c0.4,1.3,1.6,2.4,1.1,3.8c-0.8,2-0.7,4.2-0.8,6.3c-0.9-0.9-1.7-1.8-2.7-2.5
		c-3.2-0.4-6.4,0-9.6-0.1c-1.8,0.3-3.5-0.6-5-1.3c-0.8-0.8-1.2-1.9-1.9-2.7c-1.6-0.7-3.4,0-5-0.2c-2.7-0.3-5.5,0-8.2-0.4
		c-0.1-2.3-0.1-4.7,0.6-7c-1-2.3-1.9-4.7-2.8-7.2c-0.2-2.2-0.3-4.5-1-6.7c2.2-0.9,4.2,0.5,6.1,1.4c1.2-0.2,1.9-1.3,2.8-1.9
		c1-0.2,2,0.3,3.1,0.1c1.2-0.5,2.3-1.6,3.8-1.5c1.6-0.1,3.3,0,4.9,0C228.7,272.4,229.5,271.5,230.3,270.8z"/>
	<path class="st13" d="M244.1,274.4c2.9,0.1,5,1.9,7.6,3c1.4,0.6,2.4,2.2,4.1,2.1c2.5-0.2,4.7,1.4,7.2,1.1c2.9-0.4,5.4,1.8,8.2,1.7
		c1.1-0.2,2-0.7,3-1c0.8,1,1.6,2,2.4,3c-1.5,0.7-3.1,1-4.6,1.8c-0.9,1.3-2.1,2.7-1.7,4.4c0.6,3.4,0.2,6.8,0.8,10.2
		c-4.9-0.1-9.8-1.3-14.8-0.9c-0.5,1.2-1.4,2.3-1.6,3.7c0.3,0.9,0.8,1.7,1.2,2.5c-1.3,1.5-2.6,3-3.9,4.4c-1.6-0.4-3.6,0.4-4.9-0.8
		c-0.6-0.9-0.5-1.9-0.8-2.9c-0.6-0.9-1.5-1.6-2.2-2.4c-0.5-2.4-0.2-4.9,0.6-7.2c0.5-1.4-0.6-2.7-1.1-3.9c0.2-1.7,1.2-3.3,1.6-5
		c0.1-1.5-0.6-3.1-0.2-4.6C245.8,280.4,243.9,277.5,244.1,274.4z"/>
	<text transform="matrix(1 0 0 1 265.5343 274.3533)" class="st1 st2 st4">kfNkf</text>
	<text transform="matrix(1 0 0 1 249.2237 291.7418)" class="st1 st2 st4">?kGb]xL</text>
	<text transform="matrix(1 0 0 1 229.3718 266.2837)" class="st1 st2 st4">c3f{vFfrL</text>
	<text transform="matrix(0.9191 0.3939 -0.3939 0.9191 243.5649 248.4851)" class="st1 st2 st5">u&apos;NdL</text>
	<text transform="matrix(1 0 0 1 212.3057 248.8655)" class="st1 st2 st4">Ko&apos;7fg</text>
	<text transform="matrix(1 0 0 1 198.7408 229.2161)" class="st1 st2 st4">/f]Nkf</text>
	<text transform="matrix(1 0 0 1 184.054 261.6348)" class="st1 st2 st4">bfª</text>
	<text transform="matrix(1 0 0 1 107.6884 221.8302)" class="st1 st2 st4">alb{of</text>
	<text transform="matrix(1 0 0 1 205.748 200.6539)" class="st1 st2 st4">?s&apos;d</text>
	<text transform="matrix(1 0 0 1 162.4943 223.8308)" class="st1 st2 st4">;Nofg</text>
	<text transform="matrix(1 0 0 1 216.6797 286.3875)" class="st1 st2 st4">slknj:t&apos;</text>
	<text transform="matrix(1 0 0 1 139.7076 248.4424)" class="st1 st2 st4">afFs]</text>
</g>
<g>
	<path class="st14" d="M296.2,151.8c1.8,0.2,3.6,0,5.4-0.3c1,0.8,1.4,2,2.1,3c0.9-0.1,1.8-0.4,2.8-0.1c1.4,0.5,2.9,0.3,4.2,0.8
		c0.3,1.2,0.1,2.7,1.1,3.6c1.6,0.3,3.3,0.1,4.8,0.2c-0.1,0.4-0.2,1.1-0.2,1.5c-0.7,0.3-1.4,0.6-2,0.9c-0.2,2.7,0,5.6,2.1,7.4
		c-0.8,1.8-1.4,3.8-1.2,5.8c1.1,0.2,2.2-0.1,3.3-0.4c0.5,0.4,1,0.7,1.5,1c-0.3,1.4-0.7,2.8-0.7,4.2c-0.5,2.1-1.6,4.2-1.6,6.4
		c-1.3,0.3-2.5,0.7-3.8,1c-1.7,0.1-3.6-0.4-5,0.8c-0.4,0.7-0.5,1.5-0.7,2.3c-1.9,0.6-3,2.2-4.3,3.5c-1.5-1-3-1.9-4.3-3.1
		c-1.4,0.9-1.5,2.5-1.7,4c-1.2,0.6-2.7,1.1-3.2,2.4c-0.7,1.7-2.3,2.7-4,3.2c-1.1,0.3-1.3,1.4-1.9,2.2c-1.4-0.1-2.9-0.3-4.3-0.1
		c-1,0.2-1.4,1.3-1.8,2.1c-0.6,1.3-2,2.1-2.5,3.5c-0.6,1.3-1.1,2.7-1.8,4c-1.3-0.2-2.2-0.9-3.1-1.7c-1,0.2-2,0.3-3.1,0.4
		c-0.5-2.1-1.1-4.2-2.2-6.2c-0.6-1-0.6-2.1-0.5-3.2c0.8-1.5,1.9-2.9,2.2-4.6c-1.5-1.5-3.5-2.3-5.6-2.8c-0.1-0.9-0.3-1.8-0.4-2.7
		c0.3-0.7,1-1,1.5-1.5c1.1-0.8,0.6-2.5,1.6-3.5c1.7-1.8,3.8-3.4,4.9-5.7c0.4-0.9,1.3-1.2,2-1.6c0.3-3.1,0.9-6.1,1.1-9.2
		c1.4-0.8,3.6-1.3,4.1-3.1c-0.6-1.7-1.5-3.3-1.6-5.1c1.2-0.8,2.2-1.8,3.3-2.8c1.2-0.8,2.7-0.4,4-0.5c0.9-0.3,1.7-0.6,2.5-0.9
		c0.3-1.2,0.3-3.3,1.9-3.4C292.9,153.4,294.4,152.2,296.2,151.8z"/>
	<path class="st14" d="M312.9,187.7c1.4,0.3,2.7-0.7,4.1-0.8c1.5-0.1,3,0.2,4.4,0.4c1.4,0.8,2.7,2.4,4.5,2.2
		c1.3-0.1,2.6,0.3,3.9,0.6c0.9,2.5,3.6,4.2,3.3,7.2c0.8,1.2,2.3,1.6,3.4,2.6c1.1,2.5,2.2,5.2,3.6,7.5c0.6,1,0.4,2.2,0.4,3.3
		c-0.2,3,1.1,5.8,1.8,8.7c-1.2,1.6-3.3,1.5-5,2.2c-0.9-1-1.8-2.1-2.9-2.9c-1-0.1-2-0.1-3-0.1c-0.3,1.1-0.5,2.2-0.7,3.4
		c-2.1-0.6-4.3-0.9-6.4-1.9c-2.2-0.3-4.7,0.8-6.9-0.3c-1.9-0.7-3.4-2-4.8-3.4c-1.4-1.3-3.4-1.5-4.9-2.8c-2.4-2-5.3-3.4-8.1-4.6
		c-2-0.6-4.1-0.7-6.2-0.9c-0.6-1.4-1.6-2.5-2.9-3.4c-1.2-0.7-1.3-2.5-0.5-3.5c1.4-0.8,3-1.1,4.1-2.1c0.7-0.7,1-1.7,1.5-2.5
		c0.8-0.6,1.7-1,2.5-1.5c0.6-1,0.6-2.2,0.9-3.4c1.4,0.8,2.7,1.8,4.1,2.5c1.2,0.2,2-0.9,2.7-1.7c0.6-0.9,1.7-1.2,2.6-1.9
		c0.5-0.8,0.6-1.7,1.1-2.5C310.7,187.4,311.8,187.5,312.9,187.7z"/>
	<path class="st14" d="M259.4,196.3c2.2-0.5,4.5-0.8,6.6-1.6c1.7,0.1,3.2,0.9,4.6,1.9c-0.7,2.3-3,4.2-2,6.9c1.2,2.4,2.1,4.9,2.8,7.5
		c1.6,0.2,3.4-0.1,4.7,1.1c0.8,0.6,1.8,0.4,2.8,0.4c1.3-2.1,1.8-4.6,3.7-6.3c0.9-0.9,1.1-2.3,2.1-3c1.4-0.1,3-0.4,4,0.7
		c1.3,1.5,3.1,2.5,3.9,4.3c-1.7,0.7-3.8,1.1-4.8,2.8c-0.7,1.5,0.7,2.9,1.2,4.3c-1.3,1.2-2.4,2.5-3.8,3.7c-1.9,1.5-2.4,4-3.1,6.2
		c-1,0.2-2.4-0.1-3,1.1c-0.6,1-1.1,2.1-1.5,3.2c-2.5,0.2-4.4-1.6-6.8-2c-0.4,2.1,0.8,3.9,2,5.6c-1.9-1.1-4-1.5-6.1-0.8
		c-0.4-0.5-0.8-1-1.2-1.5c-1.4,0.3-3,0.8-4.1-0.4c-1.4-1.3-3.2-1.6-4.9-2.3c-1.7-0.8-3.7-0.1-5.5-0.1c0.2-1.7,0.4-3.4,0.1-5.2
		c-0.3-1.4,1.9-2.5,0.9-3.9c-1.5-0.9-3-1.8-4.4-2.9c-1.3-0.1-2.5,0.6-3.8,0.7c-1.1-0.1-2.2-0.4-3.3-0.6c0-2.3-0.9-4.5-1.7-6.7
		c-0.8-1.8,0.9-3.5,1.1-5.3c0.1-1.5,1.7-2,1.9-3.4c0.2-1.4-0.3-2.8-0.3-4.2c2.7,1.3,5.7,1.3,8.4,2.5c1.8-0.4,3.6-0.9,5.5-0.8
		C257,198.6,257.8,196.6,259.4,196.3z"/>
	<path class="st14" d="M337.7,200c3.1-0.1,6.2,0.1,9.1,1c1.2,1.7,2.3,3.6,4.3,4.5c0.1,0.9,0.2,1.8,0.3,2.7c1.1,0.7,2,1.5,3.3,1.8
		c1.6,0.4,3.4,0.6,4.8,1.7c1.4,1,2.9,2.2,4.7,1.8c1.2-0.5,2.3-1.4,3.6-1.3c1.4-0.2,2.5,1.2,3.9,0.6c1-0.3,1.3-1.4,2.1-2
		c1.7-1.6,3.1-3.5,5-4.7c1.3-0.3,2.6-0.4,3.9-0.6c0.8,0.9,1.5,1.8,2.4,2.7c0.9,0.4,1.8,0.4,2.8,0.6c0.3,1.3-0.5,2.3-1,3.4
		c-0.1,1.4,0.4,2.7,0.6,4c-0.8,1-1.7,1.9-2.3,3c-0.8,1.8-3.8,1.8-3.8,4.2c0.2,2.3,1.1,4.5,0.7,6.8c-1,1.6-3,1.8-4.4,2.8
		c-1.3,1.3-1.4,3.3-2.1,4.9c-1.4,1.5-3.9,1.9-4.5,4.1c-0.5,2.2-1.1,4.5-1.3,6.8c-1.3,0.6-2.5,1.4-3.7,2.3c-1.5-0.3-3.3-1.8-4.6-0.4
		c-1.2,2.1-1.3,4.6-1.7,6.9c-0.3,1.5-1.5,2.5-2.4,3.8c-1.3,1.6-4.1,2.2-3.7,4.7c-0.2,3,2.2,4.9,3.5,7.4c-1.2,0.5-2.3,1.3-3.6,1.7
		c-1.4-0.2-3.2-0.3-3.7-1.8c-0.7-1.4-1.4-3-2.8-3.8c-1.6-1.2-3.8-0.5-5.4,0.5c-0.3-1.2-0.5-2.4-0.7-3.7c-2.7-1.6-5.5-2.9-8.3-4.2
		c2.4-2.5,3.1-6.1,3.7-9.5c1.5-0.4,3.3-0.4,4.5-1.6c2-1.9,4.7-3.2,6-5.8c1.3-1.9,1.2-4.3,1.6-6.6c0.3-1.6,0.7-3.3,1.1-4.9
		c0.4-1.4,1.5-2.2,2.3-3.3c-0.9-2.4-2.4-4.6-4.3-6.3c-1.1-1.2-2.5-2-3.3-3.4c-1.1-2.1-1.7-4.5-2.3-6.8c-0.7-2.2-0.1-4.4-0.5-6.6
		C339.8,205,338.2,202.7,337.7,200z"/>
	<path class="st14" d="M274.7,237.5c-1.2-0.7-1-2.6-2.2-3.3c-0.8-0.5-1.6-1.2-2.6-1.5c-1.1-0.1-2.2,0.3-3.3,0.2
		c-0.9-0.3-1.6-1-2.5-1c-1.1-0.1-2.4,0-3.3-0.9c-1.6-1.5-3.8-1.8-5.7-2.7c-1.5-0.6-3.5,1-4.8,0c0.9,2.6,1.8,4.5,2.7,7.2
		c0,0,0,0,0.1,0c0,0,0,0,0,0.1s0,0.1,0.1,0.2c0-0.1,0-0.1-0.1-0.2c-1,1.7-1.6,3.5-2.5,5.3c1.6,0.5,3.5,0.5,4.9,1.5
		c0.9,0.7,2,1.1,3.1,1.5c0.5,1.3,0.7,2.9,2.1,3.5c1.4,1.2,3.2,0.2,4.7,0.1c2,0.4,3.8,1.6,5.4,2.9c1-1.1,2-2.1,3-3.2
		c1.2-2.6,1.8-5.6,3.8-7.8C276.7,238.7,275.7,238.1,274.7,237.5z"/>
	<path class="st14" d="M288.2,211.7c1.5-2,4-2.7,6.4-2.7c2.5,0.3,5,0.6,7.2,2c2.8,0.9,4.9,3,7.4,4.4c3,1,4.7,3.9,7.7,5
		c1.3,0.7,2.8,0.7,4.3,0.7c-1.8,1.6-2.6,3.8-3.8,5.8c-0.4,0.6-0.8,1.3-0.7,2c0.2,2.4,0.2,4.9,1,7.3c-0.4,2.3-1.9,4.2-2,6.6
		c0.1,0.7,0.7,1.2,1,1.9c1.4,1.8,0.4,4.3,0.7,6.4c-3.3,0.6-6.5-0.6-9.6-1c-0.4-1.3-0.6-2.7-1.4-3.8c-1.4-1.3-3.4-1.4-5-2.1
		c-2.4-1.1-5.2-1.1-7.8-1.4c-2.2-0.3-4.1-1.5-6-2.7c0.5-0.9,1-1.8,1.5-2.8c-1.2-0.9-2.8-1.1-3.7-2.3c0.1-0.9,0.4-1.7,0.6-2.5
		c-0.8-0.8-1.8-1.5-1.9-2.7c-0.2-1.3-0.7-2.4-1.6-3.4c0.7-2,1.2-4.1,2.2-5.9c1.5-1.6,3.2-3,4.7-4.6
		C289.9,214.5,288.7,213,288.2,211.7z"/>
	<path class="st14" d="M332.1,219.2c0.7,0,1.4,0,2,0.1c1.2,0.8,2,1.9,2.9,3c1.9-0.5,4-0.9,5.8-1.9c1.9,3.8,6.6,5.6,7.6,10
		c-4.3,4.2-1.8,11.3-5.6,15.8c-1.4,1.7-3.4,2.7-4.9,4.2c-1,1.2-2.8,1.1-4.2,1.5c-2.5-2.3-6.2-3.5-9.6-3.4c-2.6-0.1-4.4,2.9-7.1,2
		c-1.3-0.6-0.8-2.3-0.8-3.5c0.4-1.7-1.1-3-1.9-4.3c0.6-1.8,1.3-3.5,1.9-5.3c0.6-1.6-0.5-3.2-0.5-4.8c0-1.5-0.3-3-0.1-4.4
		c1.4-2.8,2.9-5.7,5.4-7.7c2.2,1.1,4.7,1.6,7.1,2.2C332,222.8,331.8,220.3,332.1,219.2z"/>
	<path class="st14" d="M279.9,226.4c1.3,0.8,3.3,1.3,3.2,3.2c-0.1,1.4,0.8,2.4,1.7,3.3c-0.4,0.6-0.7,1.1-1.1,1.7
		c0.9,1.6,2.4,2.5,4.2,3c-0.4,0.7-0.7,1.3-1.1,1.9c-1.2-0.2-2.4-0.4-3.7-0.5c-0.2,2.2,0,4.5-0.7,6.6c-0.8,0.9-1.8,1.6-2.7,2.4
		c0.3,0.8,0.7,1.5,1.2,2.2c-1.2,1.2-1.9,2.8-2.2,4.4c-0.2,1.3-1.5,1.8-2.7,2c-1.2,0.1-1.8,1.1-2.7,1.8c-0.3-0.8-0.5-1.6-0.9-2.3
		c-0.9-1.1-2.5-1.8-2.4-3.4c1.2-1.7,2.9-2.9,4.3-4.4c1.8-2.3,1.4-6.4,4.7-7.3c0.1-2.5-2.9-3.1-4.4-4.5c-0.8-2.8-2.4-5.3-3.6-8
		c1.9,1,4,2.1,6.2,1.9C279,229.6,279.2,227.7,279.9,226.4z"/>
	<path class="st14" d="M284.1,239.6c2.9,0.9,5.3,2.9,8.2,3.8c2.8,0.5,5.7,0.3,8.4,1.4c1.2,0.5,2.5,0.8,3.8,1.3
		c2,1.2,2.7,3.7,1.9,5.9c-1.5-0.5-2.8-1.4-4.3-1.8c-2.5-0.2-5.4,1.8-4.7,4.6c1,1.1,2.4,1.4,3.7,1.9c-1.9,2.1-2.5,5.3-2,8.1
		c0.8,2-1.9,2.6-3,3.9c-1.2-0.5-2.3-1.1-3.6-1.3c-1.5,0-2.9,1-4.4,0.8c-1.9-0.8-3.5-2.7-5.7-2.6c-1.6,0.1-2.7-1.1-4-1.7
		c-0.9,0.5-1.7,1.1-2.5,1.6c-1.3-1.8-3.4-3.2-5.7-3c-2.8,0.4-5.7,0.6-8.5,0.4c0.8-1,1.3-2.3,2.4-3.1c2.5,0,5,0.3,7.4-0.5
		c2.9-0.3,5.3-2.1,8-3.2c0.4-2.2,1.1-4.4,3-5.9c-0.4-0.8-0.9-1.6-1.3-2.4c0.7-0.6,1.5-1.1,2.2-1.8
		C283.9,244,283.9,241.8,284.1,239.6z"/>
	<path class="st14" d="M319.9,251.5c2.7,0.4,4.5-2.7,7.2-2.3c2.4,0.4,4.9,1.1,7,2.4c1.5,1.4,0.5,3.6,0.2,5.4
		c-0.3,2.3-2.4,3.8-2.9,6.1c3,0.8,5.7,2.3,8.4,3.8c0.2,1.5,0.7,3,1.2,4.4c-2.3,1.3-4.8,2.2-7.5,2.2c-2,0-2.3,2.2-2.7,3.7
		c-0.9-0.3-1.8-0.5-2.7-0.7c-0.9,1-1.8,2-2.7,2.9c-1.7-2.2-2.4-4.9-2.2-7.7c-1.5-0.5-3.1-0.7-4.6-1.1c-2.4-0.8-4.9-0.2-7.4-0.7
		c-1.4-0.2-2.7-0.7-4-1c-1.8-0.1-3.6,0.7-5.5,0.4c-1.4-0.3-2.7-0.7-4.1-1c0.9-0.7,2.1-1.1,2.3-2.3c0.1-1.5-0.4-3-0.2-4.4
		c0.2-2,1.4-3.8,2.8-5.3c-1.5-0.8-3.1-1.3-4.7-2c0.4-0.9,0.3-2.1,1.3-2.5s2.1-1.3,3.2-0.7c1.3,0.4,2.5,1.5,4,1.4
		c0.6-0.5,1.1-1.1,1.6-1.7c2.4,0.6,5,1,7.5,1.2C317,252.1,318.4,251.3,319.9,251.5z"/>
	<path class="st14" d="M328.7,277.3c-0.9,1.1-1.9,2.1-3.1,3c-2.9-1.6-3-5.4-3.3-8.3c-1.1-0.1-2.3,0.2-3.3-0.3
		c-3-1.5-6.4-0.1-9.5-1.3c-2.3-1-4.7-0.3-7.1-0.3c0.2,1.6,0.4,3.3-0.6,4.7c-0.9,1.3-1.4,2.9-2,4.3c-0.6,0.4-1.4,0.3-2.1,0.5
		c-1.1,0.1-2,1.1-3.1,0.9c-3.1-0.5-6.3-0.1-9.4-0.4c-2-0.2-3.2,1.9-4.8,2.9c-0.5,0.2-0.9,0.5-1.4,0.8c3.8,1.3,10.9-1.5,9,4.3
		c-0.5,1-2,2-2.5,3.6c1-0.5,2,0.5,2.5,0.5c1.4,2.3,2.8,4.7,5.8,4.7c0.1-1,0.8-2,1.8-1.8c4.4-0.2,8.9,0.4,13.2-1
		c2.3-1.1,3.1-3.6,4.9-5.3c2.1-1.5,4.6-2.2,7.1-3.1c1.8-0.7,2.8-2.9,4.9-2.7c1.2,0,2.3,0.7,3.5,0.8C332.2,283,331.6,278,328.7,277.3
		z"/>
	<text transform="matrix(0.9258 0.3779 -0.3779 0.9258 246.1843 231.3337)" class="st1 st2 st15">afUn&apos;ª</text>
	<text transform="matrix(1 0 0 1 357.1964 230.2161)" class="st1 st2 st4">uf]/vf</text>
	<text transform="matrix(1 0 0 1 325.7588 235.497)" class="st1 st2 st4">ndh&apos;ª</text>
	<text transform="matrix(1 0 0 1 311.5326 205.8694)" class="st1 st2 st4">dgfª</text>
	<text transform="matrix(1 0 0 1 294.3223 228.2157)" class="st1 st2 st4">sf:sL</text>
	<text transform="matrix(1 0 0 1 311.5324 262.8608)" class="st1 st2 st4">tgxF&apos;</text>
	<text transform="matrix(0.8789 -0.4769 0.4769 0.8789 281.1285 296.795)" class="st1 st2 st16">gjnk/f;L</text>
	<text transform="matrix(1 0 0 1 280.4405 259.1454)" class="st1 st2 st4">:ofª\hf</text>
	<text transform="matrix(1 0 0 1 284.8974 178.8042)" class="st1 st2 st4">d&apos;:tfª</text>
	<text transform="matrix(1 0 0 1 251.0092 212.6828)" class="st1 st2 st4">DofUbL</text>
	<text transform="matrix(0.1674 0.9859 -0.9859 0.1674 278.6248 230.4595)" class="st1 st2 st4">kj{t</text>
</g>
<g>
	<path class="st17" d="M97.1,87.7c0.8-1,2-1.6,3.1-2.3c1.6,1.7,3.5,3.6,6.1,3.3c1.6-0.4,3.1,0.3,4.6,0.7c0.6-0.9,1-1.9,1.5-2.9
		c1.8,0.8,3.7,1.4,5.4,2.6c1.8,1.5,4.3-0.5,6.3,0.8c1.4,0.5,2.3,2.4,1.5,3.7c-1.2,1.9-0.8,4.4,0.4,6.2c2.1,0,4.6-0.2,6,1.8
		c0.8,3-0.9,5.8-0.3,8.8c-1.2,0.2-2.3,0.3-3.4,0.4c0.2,2.2,0.9,4.8-0.8,6.8c-1,1.6-3,1.4-4.5,2c-1.8,1.2-1.4,3.8-2.8,5.4
		c-0.7,1.8-3,2.1-3.8,3.9c-1,1.9-2.8,3.2-4.7,4c0,0.7,0.1,1.4,0.1,2.1c-2.4,1.2-4.8,2.6-7.4,3.4c-4.1,0.2-7.9-1.3-11.7-2.4
		c-2.1,0.6-4.3,1-6.5,1.2c-0.3-1.2-0.4-2.8-1.7-3.4c-1.8-1-2.3-3.1-3.7-4.5c-0.9-1-2.3-1.1-3.6-1.4c-0.5-1.5-1.7-2.5-3-3.4
		c0.8-0.3,1.5-0.6,2.3-0.9c0.3-2.1,1.2-4.3,0.6-6.5c-0.4-1.1-0.2-2.3-0.1-3.5c1.3,0,2.7,0.4,4,0c2.1-0.4,3.6-2.1,5.7-2.6
		c1.3-0.5,2.6-0.2,3.9-0.2c1.4-0.4,2.7-1,4.2-1.2c2.3-0.3,2.9-2.9,3.5-4.7c0.6-2.1-2.2-3.3-2-5.5c0.2-1.9-0.2-3.9-1.8-5.2
		C95.1,92,95.9,89.7,97.1,87.7z"/>
	<path class="st17" d="M137.8,96.2c1.3-0.3,2.7-0.3,4.1-0.3c0.7,0.9,1.3,1.8,2.2,2.5c1.5,0.7,3.2,0.7,4.7,1.1
		c0.2,1.5-0.1,3.1-0.8,4.4c-0.9,0.2-1.7,0.3-2.5,0.5c-0.7,1.9-1.3,3.8-1.8,5.8c-0.6,2.7-2.4,4.9-2.5,7.6c-0.1,1.1-0.1,2.2,0.2,3.3
		c1.2,2,3.6,2.4,5.7,3c1.2,2.3-0.4,4.6-0.7,6.9c0.2,1.3,1,2.4,1.5,3.7c0.1,1.4-0.5,2.8-0.9,4.2c-0.8,2.4-2.7,4.1-4,6.2
		c-2,0.2-4.1,0.6-6.1,0.6c-0.3-1.3-0.6-2.5-1-3.8c-3.4-0.6-6.3,1.6-8.8,3.8c-1.2,0.8-1.9,2.1-2.7,3.3c-2.9-0.7-5.8-0.9-8.6-1.8
		c-1.1-0.9-2.1-2-3.3-2.9c-1,0.5-1.9,1.1-3,1.6c-0.6-1.4-0.7-3-1.5-4.2c-1.1-0.5-2.3-0.8-3.4-1.2c-0.1-0.3-0.2-0.8-0.2-1.1
		c2.5-1.2,5.3-2,7.6-3.6c0.7-1,0.9-2.4,2-3.1c1.2-0.9,2.2-1.9,3-3.2c0.8-1.3,2.2-1.9,3.3-2.8c1.4-1.9,1.9-4.2,2.8-6.4
		c1.3-0.3,2.6-0.4,3.8-0.8c2.3-1.8,3.1-5,2.2-7.8c1.2-0.2,2.3-0.5,3.5-0.8c-0.3-3.1,0.7-6.2,0.2-9.3c-0.6-1.2-1.8-1.8-2.8-2.7
		c0.2-0.7,0.3-1.3,0.4-2C132.9,96.6,135.4,96.8,137.8,96.2z"/>
	<path class="st17" d="M56.2,117.2c1.6-2.5,4.5-3.3,6.9-5c1.8,0.1,3.6,0.9,5.5,0.9c2.8-0.1,5.5-1,8.3-0.9c-0.4,1-0.9,2-1.1,3.1
		c0.1,1.2,0.6,2.3,0.6,3.5c-0.2,1.3-0.5,2.6-0.7,3.9c-0.8,0.4-1.5,0.7-2.3,1.1c0,0.5,0,0.9,0,1.4c1.4,0.7,2.7,1.8,3,3.5
		c1.1,0.2,2.4,0.3,3.4,0.9c1.6,1.3,2.2,3.3,3.1,5.1c-1,0.4-1.9,0.9-2.9,1.3c-0.2,0.7-0.4,1.4-0.5,2.1c-0.8,0.3-1.5,0.6-2.3,0.8
		c-2.8-0.9-4.4-3.7-7.3-4.5c-1.9-0.4-4-0.1-5.7,1.1c-1.2,0.9-2.9,0.5-4.3,0.5c-1.8,0.1-3.6-0.5-5.3-1.1c-2.5-0.3-5,0.9-6.7,2.7
		c-2.4,1-4.3,3-6.7,3.8c-0.8-1.2-1.6-2.6-1.8-4.1c-0.3-2.2-2.1-3.9-1.9-6.2c1.1-0.2,2.1-0.4,3.2-0.6c0.1-2,1.4-3.6,3.1-4.7
		c1.8-0.9,1.8-3.2,3.5-4.2c1.7-1.2,2.5-3.4,4.6-4.1C53.3,116.8,54.8,117.2,56.2,117.2z"/>
	<path class="st17" d="M81.1,136.5c1.1-0.7,2.2-1.3,3.4-2c0.3,1.2,0.5,2.3,0.8,3.5c2.5,0.2,4.8-0.7,7.2-1.2c3.1,0.8,6.1,2.1,9.3,2.2
		c-0.6,2.1-1.4,4.2-2.2,6.3c-1,1.6-1.9,3.3-2.8,5c0.5,0.7,1,1.4,1.5,2.2c-0.5,1.5-2,2-3.4,2.5c-1-0.6-2-1.2-3-1.8
		c-0.3,0.4-0.6,0.8-0.8,1.1c1.8,1.8,1.8,4.7,3.5,6.6c2.1,2.4,3.9,5.5,3.8,8.7c0.1,1.4-1.4,2.1-2.6,2.4c-1.8,0.2-3.7-0.5-5.4,0.3
		c-1.8,0.5-3.3,2.2-5.4,1.7c-1.4-0.3-2.9,0.2-4.2-0.4c-0.6-1.4-1.2-2.9-2.7-3.5c-1.1,0.9-1.7,2.2-2.3,3.5c-1.3,0-0.9-1.9-1.6-2.7
		c-1.2-1.2-2.4-2.2-3.6-3.3c-2.2-0.6-4.3-1.3-6.5-1.8c-1.2-1.2-2.1-2.7-3.5-3.7c-1.3-1.2-3.3-1.4-4.7-2.5c2.6-1.3,3.7-4.2,5.9-5.8
		c2.3-0.2,4.7-0.1,6.9-1.1c0.3-1,0.5-1.9,0.8-2.9c0.9-0.6,1.9-1.1,2.9-1.6c-0.2-1.2-0.5-2.4-0.8-3.6c0.8-0.2,1.6-0.4,2.4-0.7
		c-0.2-1.4-1.4-2.9-0.3-4.2c2-0.7,4.4,0,6.1-1.4C80.5,137.8,80.7,137.1,81.1,136.5z"/>
	<path class="st17" d="M52.7,135.5c1.9-0.8,3.4,1,5.2,0.9c1.8,0.1,3.6,0.4,5.5,0.4c1.7-0.9,3.3-2.2,5.3-1.9c2.7-0.1,4.3,2.3,6.4,3.7
		c-0.8,0.5-1.8,0.9-2.1,1.9c-0.2,1,0.1,2,0.2,3c-0.8,0.4-1.5,0.7-2.2,1.1c0.3,1.1,0.6,2.3,0.9,3.4c-0.9,0.5-1.8,1-2.8,1.5
		c-0.1,0.9-0.3,1.7-0.4,2.5c-1.9,0.9-3.9,1.2-6,1.2c-1.5,0.1-2.2,1.5-3.2,2.2c-1.5,1.1-2.1,2.9-3.8,3.6c0.2,1.3,0.2,2.7-0.3,3.9
		c-0.7,1.5,0.8,3.6-0.9,4.6c-2.1,0.6-2.6-2.4-4.5-2.5c-2.2-0.2-4-1.8-6.2-2.3c-2.1-0.5-4.3-0.9-6.5-0.8c-1.3,0.1-2.9,0.1-3.7-1.1
		c-0.9-1.4-1-3.2-1.4-4.7c1.1,0.3,2,0.6,3.1,0.6c0.9-0.5,2.4-0.9,2.3-2.2c-0.1-1.9-0.7-3.8-0.9-5.7c1.1,0.4,2.1,0.8,3.3,1.2
		c0.2-2.8,1-5.5,2.3-7.9c2.3-1.5,4.4-3.2,7-4.2C50,136.8,51.1,135.7,52.7,135.5z"/>
	<path class="st17" d="M102.8,139.6c1.1,1.7,3,2.4,4.9,2.9c0.3,1.4,0.7,2.8,1.2,4.1c1.3-0.1,2.4-0.6,3.6-1.3c1,0.9,1.8,1.9,2.9,2.7
		c2.1,0.5,4.3,1,6.6,1.2c1.3,0.6,3,1.6,2.5,3.3c-0.5,2-1,4.3-0.1,6.3c1.5,1,3.1,1.8,4.4,3c-1.8,1.3-4,1.7-6,2.4
		c-2.2,2.1-5,4.3-5,7.6c0.3,1.7,1.3,3.2,2.5,4.5c1.5,1.6,2.4,3.6,4,5.2c1.8,2,1.9,4.9,3.5,7.2c0.4,0.7,1.1,1.4,0.8,2.3
		c-0.6,0.9-1.7,0.9-2.6,1c-0.2-2-0.3-4.3-1.8-5.9c-1.3-1.4-2.1-3.2-2.5-5c-0.3-1.7-2.1-2.2-3.5-2.7c-1.6-0.7-2.9,0.9-4.2,1.5
		c-1.4-0.9-2.6-2.2-4.1-3c-1.7,0.3-3.3,1.2-5,1c-3.4,0.2-5.9-2.5-8.1-4.8c1-0.7,2.5-1.3,2.7-2.7c0.4-3.8-1.7-7.5-4.2-10.2
		c-1.1-1.2-1.3-2.8-1.8-4.2c2,0.2,4-0.5,5.5-1.7c0.4-1.5-0.3-2.9-0.7-4.2c0.5-2,2.1-3.4,2.7-5.4
		C101.5,142.8,102.1,141.2,102.8,139.6z"/>
	<path class="st17" d="M27.3,160.1c0.6-1.8,2.1-3,3.3-4.3c0.8,1.4,1.1,3.1,1.3,4.7c0.1,1,1.1,1.4,1.8,1.7c1.8,0.9,3.8,0.4,5.7,0.7
		c2,0.4,4.2,0.4,6,1.4c1.4,0.8,3,1.3,4.5,1.7c0.9,0.7,1.7,1.7,3,2.1c1.7,0.3,2.9,2.7,1.7,4.1c-1.4,2-2.8,4.2-2.8,6.7
		c0.3,2.1,1.2,4,2.3,5.8c0.6,2.5,0.4,5.2-0.3,7.6c-0.8,0.4-1.6,0.8-2.5,1.2c-0.2,2.9,0.3,5.8,0.6,8.7c-0.9-0.8-2.1-1.4-2.7-2.5
		c-0.6-1.2-1.2-2.5-2.5-3.1c-1.4-0.9-3.1-0.4-4.6-0.2c-1-1.3-2.3-2.3-3.4-3.5c-0.3-0.8-0.4-1.7-0.6-2.5c-1-0.6-2-1.1-3-1.6
		c-0.2-1-0.3-1.9-0.5-2.9c-2.7-0.3-4.6-2.2-6.7-3.6c-1.3-0.9-1.9-2.7-3.6-3c-0.9-0.3-1.8-0.4-2.7-0.5c-0.4-1.9-1-3.9-0.8-5.9
		c0.4-1.2,1-2.2,1.6-3.2c1-1.7,3.1-2.4,4.2-4.1C27.3,163.8,26.7,161.9,27.3,160.1z"/>
	<path class="st17" d="M56.3,161.9c0.9,0,1.7-0.1,2.7,0c1.6,1.1,3.1,2.6,4.2,4.2c0.6,1,1.8,0.9,2.8,1.2c1.5,0.5,3,0.9,4.4,1.3
		c1.1,1.1,2.3,2,3.4,3.2c0.5,1,0.7,2,1,3.1c0.6,0,1.2-0.1,1.7-0.1c0.6-1.2,1.1-2.3,1.8-3.4c1.2,0.8,1.5,2.1,1.9,3.3
		c2.2,0.6,4.7,0.1,7,0.6c1.4,0.9,2.5,2.2,3.6,3.5c1.2,1.9,3.3,2.7,4.8,4.2c0.8-0.5,1.6-1,2.4-1.4c0.2,0.7,0.3,1.5,0.4,2.2
		c1.2,0.7,2.5,1.5,3.9,1.8c0.1-1.1,0.2-2.2,0.3-3.4c1,1.8,1.3,3.8,1.5,5.7c0.7,1.5,1.7,3,1.9,4.7c0.3,2.1,1.6,4.1,1.6,6.2
		c-0.9,1.6-2.4,2.5-3.7,3.8c-3.3,2.2-5,5.9-7.8,8.6c-1.2,1.2-2.8,1.9-3.9,3.2c-0.7,1-1.2,2.2-1.9,3.3c-0.5-0.1-1-0.2-1.5-0.3
		c-0.5-1.1-1.2-2.2-1.8-3.3c-2.4-0.2-4.6-1.4-7-1.9c-0.1-1-0.1-1.9-0.1-2.9c-1.3-0.6-2.8-0.6-4.2-0.4c-1-0.5-1.8-1.2-2.7-1.7
		c-1.7-1.1-2.4-3.1-3.9-4.2c-1.1-0.5-2.4-0.2-3.7-0.4c-0.5-1.9-1.1-3.7-1.9-5.5c-1.1,0-2.3,0.1-3.4,0c-0.8-0.3-1.4-0.9-2.1-1.4
		c0.1-0.7,0.1-1.5,0.2-2.2c-1-0.4-2-0.7-2.9-1.2c-0.7-0.8,0.2-1.7,0.3-2.6c0.1-1-0.2-2-0.2-3c0.2-3.3-3.2-5.6-2.4-8.9
		c0.2-2.5,2.4-4.1,3.2-6.4c0-1.3-1-2.5-0.5-3.8C56.4,165.7,55.8,163.8,56.3,161.9z"/>
	<text transform="matrix(1 0 0 1 124.6439 130.4924)" class="st1 st2 st4">afh&apos;/f</text>
	<text transform="matrix(1 0 0 1 103.1115 161.506)" class="st1 st2 st4">c5fd</text>
	<text transform="matrix(1 0 0 1 101.2125 116.6326)" class="st1 st2 st4">aemfª</text>
	<path class="st17" d="M67.1,49.4c0.2,0.1,0.3,0.3,0.4,0.5c0.4,0.6,0.7,1.5,1.6,1.9c0.6,0.3,3.5-0.4,4.1,0c1.5,0.9,2.9,2.9,4.4,4
		c0.8,0.6-0.1,2.6,0.7,3.1c0.8,0.6,1.6,1.1,2.3,1.6c1.1,0.7,2.8,0.5,3.9,1.1c1.4,0.9,2.4-0.7,3.5,0c2.2,1.4,2,2.4,2.4,2.7
		c1.5,1,2.4,2,3.2,2.1c1.1,1.3,3.6,4.8,4,6.4c0.7,1.6,1.9,2.7,2.5,4.1c0.2,1.6,0.3,3.3,1.4,4.5c-0.3,0.7-0.6,1.4-0.9,2.1
		c-1.3,1.6-3.6,2-4.4,4c-0.9,1.9-1.9,3.9-2.6,5.9c0.1,1.4,1.6,2.3,1.7,3.7c0.1,1.1,0.1,2.2,0.2,3.4c0.5,1.3,1.6,2.2,2.2,3.4
		c-0.7,1.6-0.9,3.5-2.2,4.6c-1.7,0.5-3.4,0.9-5.2,1.4c-2.3-0.3-4.6,0.3-6.6,1.3c-1.4,0.9-2.9,2-4.7,2c-1.5-0.4-2.6-1.9-4.2-1.6
		c-1.9,0.2-3.9,0.6-5.9,0.9c-2.3,0.3-4.5-0.7-6.7-0.9c-1.5,0.6-2.6,1.8-4.2,2.3c-1.4,0.5-2.3,1.7-3.3,2.8c-1.6-0.3-3.3-0.1-4.8,0.1
		c-0.1-1,0.2-2.3-0.8-3c-1.6-1.3-1.7-3.4-2.2-5.3c-0.3-1.2,0.9-1.9,1.6-2.8c0.9-0.9,0.9-2.2,1.8-3c2-0.7,4,0.3,5.9-0.2
		c1.4-0.6,2.3-1.8,3.6-2.6c2.4-1.4,3.2-4.3,3.7-6.9c0.2-1.6,1.6-2.6,3-3.1c0.9,0.1,1.7,0.3,2.6,0.3c1.4,0.3,2.5-0.9,3.5-1.6
		c1.8-1.3,2.9-3.4,4.2-5.2c2.7-2.6,5.6-5,9.1-6.4c-0.1-1.5-1.1-1.6-0.1-2.8c0.3-0.3-1.7-0.2-4-3.5c-2.3-3.3-3.8-4.6-5.9-6.4
		c-1.3-1.1-1.6-3.4-2.9-4.5c-1.4-1-3.1-0.5-4.4-1.6C68,57.7,67.5,56,67,55.6c-1.6-1.3-1.6-0.5-2.8-1.6c-0.3-0.3-1,0.7-2.1,1.3
		c-1.2,0.8-2.2,2.1-2.5,1.8s-0.7-1.1-0.2-1.6c0.6-0.6,0.3-1.1,0.9-1.6c0.3-0.3,0.8-0.6,1-0.9c0.6-0.5,1.1-0.9,0.9-1.2
		c-0.3-0.4,0.7-0.3,0.7-1c-0.1-1.2,2-1,1.7-1.7c0.3,0.2,0.5-0.8,0.9-0.4C66.1,49.1,66.4,48.9,67.1,49.4z"/>
	<text transform="matrix(1 0 0 1 72.2201 101.8967)" class="st1 st2 st4">bfr{&apos;nf</text>
	<text transform="matrix(1 0 0 1 52.8587 127.1659)" class="st1 st2 st4">a}t8L</text>
	<text transform="matrix(1 0 0 1 74.6134 155.9156)" class="st1 st2 st4">8f]6L</text>
	<text transform="matrix(1 0 0 1 45.5693 149.4608)" class="st1 st2 st4">88]Nw&apos;/f</text>
	<text transform="matrix(1 0 0 1 72.2199 191.9486)" class="st1 st2 st4">s}nfnL</text>
	<text transform="matrix(1 0 0 1 30.2388 176.4669)" class="st1 st2 st4">sGrgk&apos;/</text>
</g>
</svg>
